<svg width="8" height="17" viewBox="0 0 8 17" fill="none" xmlns="http://www.w3.org/2000/svg">
<path d="M6.55221 2.82202H7.99976V0.119025C7.29889 0.0385704 6.59468 -0.00115114 5.89004 2.53845e-05C3.79571 2.53845e-05 2.36357 1.41102 2.36357 3.99502V6.22202H-0.000244141V9.24801H2.36357V17H5.19706V9.24801H7.55317L7.90736 6.22202H5.19706V4.29252C5.19706 3.40002 5.41265 2.82202 6.55221 2.82202Z" fill="#335F32"/>
<path d="M6.55221 2.82202H7.99976V0.119025C7.29889 0.0385704 6.59468 -0.00115114 5.89004 2.53845e-05C3.79571 2.53845e-05 2.36357 1.41102 2.36357 3.99502V6.22202H-0.000244141V9.24801H2.36357V17H5.19706V9.24801H7.55317L7.90736 6.22202H5.19706V4.29252C5.19706 3.40002 5.41265 2.82202 6.55221 2.82202Z" fill="black" fill-opacity="0.2"/>
</svg>
