<svg width="32" height="33" viewBox="0 0 32 33" fill="none" xmlns="http://www.w3.org/2000/svg">
<path d="M31.1579 30.7757H28.6316V14.7223C29.6926 15.1116 30.9389 14.7393 31.5874 13.7577C32.3452 12.5982 32.0253 11.0242 30.8884 10.2542L28.6316 8.72244V1.15696C28.6316 0.691535 28.2526 0.310714 27.7895 0.310714H23.5789C23.1158 0.310714 22.7368 0.691535 22.7368 1.15696V4.71123L16.4716 0.454559C16.1852 0.259939 15.8148 0.259939 15.5284 0.454559L1.11159 10.2542C-0.0252882 11.0242 -0.345238 12.5982 0.412623 13.7576C0.875773 14.46 1.66735 14.8916 2.50103 14.8916C2.80423 14.8916 3.09051 14.8239 3.36842 14.7223V30.7757H0.842105C0.378956 30.7757 0 31.1566 0 31.622C0 32.0874 0.378956 32.4682 0.842105 32.4682H31.1579C31.621 32.4682 32 32.0874 32 31.622C32 31.1566 31.621 30.7757 31.1579 30.7757ZM24.4211 2.00321H26.9474V7.57998L24.4211 5.86212V2.00321ZM26.9474 30.7757H5.05263V13.673L16 6.226L26.9474 13.673V30.7757ZM16.4716 4.50808C16.1852 4.31346 15.8148 4.31346 15.5284 4.50808L2.94737 13.0552C2.58527 13.3006 2.0716 13.2076 1.81892 12.8267C1.57474 12.4459 1.68421 11.9128 2.05474 11.6589L16 2.18089C17.1537 2.96795 18.3158 3.75496 19.4695 4.54197C21.6589 6.02291 23.8484 7.51232 26.0379 9.00167C26.9137 9.59406 27.7979 10.1949 28.6737 10.7958C29.2042 11.1512 30.3747 11.7012 30.3074 12.4375C30.2568 13.0552 29.5663 13.3937 29.0526 13.0552C29.0358 13.0468 16.4716 4.50808 16.4716 4.50808Z" fill="#335F32"/>
<path d="M31.1579 30.7757H28.6316V14.7223C29.6926 15.1116 30.9389 14.7393 31.5874 13.7577C32.3452 12.5982 32.0253 11.0242 30.8884 10.2542L28.6316 8.72244V1.15696C28.6316 0.691535 28.2526 0.310714 27.7895 0.310714H23.5789C23.1158 0.310714 22.7368 0.691535 22.7368 1.15696V4.71123L16.4716 0.454559C16.1852 0.259939 15.8148 0.259939 15.5284 0.454559L1.11159 10.2542C-0.0252882 11.0242 -0.345238 12.5982 0.412623 13.7576C0.875773 14.46 1.66735 14.8916 2.50103 14.8916C2.80423 14.8916 3.09051 14.8239 3.36842 14.7223V30.7757H0.842105C0.378956 30.7757 0 31.1566 0 31.622C0 32.0874 0.378956 32.4682 0.842105 32.4682H31.1579C31.621 32.4682 32 32.0874 32 31.622C32 31.1566 31.621 30.7757 31.1579 30.7757ZM24.4211 2.00321H26.9474V7.57998L24.4211 5.86212V2.00321ZM26.9474 30.7757H5.05263V13.673L16 6.226L26.9474 13.673V30.7757ZM16.4716 4.50808C16.1852 4.31346 15.8148 4.31346 15.5284 4.50808L2.94737 13.0552C2.58527 13.3006 2.0716 13.2076 1.81892 12.8267C1.57474 12.4459 1.68421 11.9128 2.05474 11.6589L16 2.18089C17.1537 2.96795 18.3158 3.75496 19.4695 4.54197C21.6589 6.02291 23.8484 7.51232 26.0379 9.00167C26.9137 9.59406 27.7979 10.1949 28.6737 10.7958C29.2042 11.1512 30.3747 11.7012 30.3074 12.4375C30.2568 13.0552 29.5663 13.3937 29.0526 13.0552C29.0358 13.0468 16.4716 4.50808 16.4716 4.50808Z" fill="black" fill-opacity="0.2"/>
<path d="M24.4206 24.0061H22.7364V15.894L22.9831 16.142C23.3085 16.4689 23.8488 16.4686 24.1739 16.142C24.5028 15.8114 24.5028 15.2759 24.1739 14.9453L22.4897 13.2528C22.1607 12.9222 21.6278 12.9222 21.2989 13.2528L19.6147 14.9453C19.2857 15.2759 19.2857 15.8114 19.6147 16.142C19.9436 16.4725 20.4765 16.4725 20.8055 16.142L21.0522 15.894V24.0061H16.8417V18.4328L17.0884 18.6807C17.4137 19.0076 17.954 19.0075 18.2791 18.6807C18.6081 18.3501 18.6081 17.8146 18.2791 17.4841L16.5949 15.7916C16.266 15.461 15.7331 15.461 15.4042 15.7916L13.7199 17.4841C13.391 17.8146 13.391 18.3501 13.7199 18.6807C14.0489 19.0113 14.5818 19.0113 14.9107 18.6807L15.1574 18.4328V24.0061H10.9469V20.9715L11.1936 21.2195C11.51 21.5374 12.0542 21.5513 12.3844 21.2195C12.7134 20.8889 12.7134 20.3534 12.3844 20.0228L10.7002 18.3303C10.3713 17.9997 9.83836 17.9997 9.50942 18.3303L7.82521 20.0228C7.49626 20.3534 7.49626 20.8889 7.82521 21.2195C8.15415 21.55 8.68705 21.55 9.01599 21.2195L9.2627 20.9715V24.0061H7.57849C7.11344 24.0061 6.73639 24.3846 6.73639 24.8524V28.2374C6.73639 28.7051 7.11344 29.0836 7.57849 29.0836H24.4206C24.8857 29.0836 25.2627 28.7051 25.2627 28.2374V24.8524C25.2627 24.3846 24.8857 24.0061 24.4206 24.0061ZM23.5785 27.3911H8.4206V25.6986H23.5785V27.3911Z" fill="#335F32"/>
<path d="M24.4206 24.0061H22.7364V15.894L22.9831 16.142C23.3085 16.4689 23.8488 16.4686 24.1739 16.142C24.5028 15.8114 24.5028 15.2759 24.1739 14.9453L22.4897 13.2528C22.1607 12.9222 21.6278 12.9222 21.2989 13.2528L19.6147 14.9453C19.2857 15.2759 19.2857 15.8114 19.6147 16.142C19.9436 16.4725 20.4765 16.4725 20.8055 16.142L21.0522 15.894V24.0061H16.8417V18.4328L17.0884 18.6807C17.4137 19.0076 17.954 19.0075 18.2791 18.6807C18.6081 18.3501 18.6081 17.8146 18.2791 17.4841L16.5949 15.7916C16.266 15.461 15.7331 15.461 15.4042 15.7916L13.7199 17.4841C13.391 17.8146 13.391 18.3501 13.7199 18.6807C14.0489 19.0113 14.5818 19.0113 14.9107 18.6807L15.1574 18.4328V24.0061H10.9469V20.9715L11.1936 21.2195C11.51 21.5374 12.0542 21.5513 12.3844 21.2195C12.7134 20.8889 12.7134 20.3534 12.3844 20.0228L10.7002 18.3303C10.3713 17.9997 9.83836 17.9997 9.50942 18.3303L7.82521 20.0228C7.49626 20.3534 7.49626 20.8889 7.82521 21.2195C8.15415 21.55 8.68705 21.55 9.01599 21.2195L9.2627 20.9715V24.0061H7.57849C7.11344 24.0061 6.73639 24.3846 6.73639 24.8524V28.2374C6.73639 28.7051 7.11344 29.0836 7.57849 29.0836H24.4206C24.8857 29.0836 25.2627 28.7051 25.2627 28.2374V24.8524C25.2627 24.3846 24.8857 24.0061 24.4206 24.0061ZM23.5785 27.3911H8.4206V25.6986H23.5785V27.3911Z" fill="black" fill-opacity="0.2"/>
</svg>
