<svg width="39" height="38" viewBox="0 0 39 38" fill="none" xmlns="http://www.w3.org/2000/svg">
<path d="M20.0886 20.2456C19.0508 19.6874 18.0169 19.1252 16.9791 18.5669C15.3365 17.6817 13.694 16.7925 12.0514 15.9073C11.6769 15.7039 11.2984 15.5006 10.9239 15.2972C11.1189 15.6401 11.3101 15.9871 11.5052 16.33V6.44515C10.92 6.78807 10.3308 7.13498 9.74558 7.47789C10.7834 8.03613 11.8173 8.59836 12.8551 9.1566C14.4977 10.0458 16.1402 10.931 17.7828 11.8202C18.1574 12.0236 18.5358 12.2269 18.9104 12.4303C18.7153 12.0874 18.5241 11.7404 18.329 11.3975V21.2784C18.329 21.9044 18.8674 22.5025 19.4995 22.4746C20.1355 22.4467 20.67 21.9482 20.67 21.2784V11.3975C20.67 10.9908 20.4515 10.5602 20.0886 10.3648C19.0508 9.80655 18.0169 9.24432 16.9791 8.68608C15.3365 7.79689 13.694 6.91168 12.0514 6.02249C11.6769 5.81913 11.2984 5.61577 10.9239 5.41241C10.1474 4.99373 9.16425 5.50811 9.16425 6.44515V16.33C9.16425 16.7367 9.38273 17.1673 9.74558 17.3627C10.7834 17.921 11.8173 18.4832 12.8551 19.0414C14.4977 19.9266 16.1402 20.8158 17.7828 21.701C18.1574 21.9044 18.5358 22.1077 18.9104 22.3111C19.4527 22.6022 20.2096 22.4706 20.51 21.8805C20.7948 21.3302 20.67 20.5566 20.0886 20.2456Z" fill="#335F32"/>
<path d="M20.0886 20.2456C19.0508 19.6874 18.0169 19.1252 16.9791 18.5669C15.3365 17.6817 13.694 16.7925 12.0514 15.9073C11.6769 15.7039 11.2984 15.5006 10.9239 15.2972C11.1189 15.6401 11.3101 15.9871 11.5052 16.33V6.44515C10.92 6.78807 10.3308 7.13498 9.74558 7.47789C10.7834 8.03613 11.8173 8.59836 12.8551 9.1566C14.4977 10.0458 16.1402 10.931 17.7828 11.8202C18.1574 12.0236 18.5358 12.2269 18.9104 12.4303C18.7153 12.0874 18.5241 11.7404 18.329 11.3975V21.2784C18.329 21.9044 18.8674 22.5025 19.4995 22.4746C20.1355 22.4467 20.67 21.9482 20.67 21.2784V11.3975C20.67 10.9908 20.4515 10.5602 20.0886 10.3648C19.0508 9.80655 18.0169 9.24432 16.9791 8.68608C15.3365 7.79689 13.694 6.91168 12.0514 6.02249C11.6769 5.81913 11.2984 5.61577 10.9239 5.41241C10.1474 4.99373 9.16425 5.50811 9.16425 6.44515V16.33C9.16425 16.7367 9.38273 17.1673 9.74558 17.3627C10.7834 17.921 11.8173 18.4832 12.8551 19.0414C14.4977 19.9266 16.1402 20.8158 17.7828 21.701C18.1574 21.9044 18.5358 22.1077 18.9104 22.3111C19.4527 22.6022 20.2096 22.4706 20.51 21.8805C20.7948 21.3302 20.67 20.5566 20.0886 20.2456Z" fill="black" fill-opacity="0.2"/>
<path d="M28.0786 15.2972C27.0408 15.8555 26.0068 16.4177 24.969 16.9759C23.3265 17.8611 21.68 18.7503 20.0374 19.6355C19.6629 19.8389 19.2844 20.0423 18.9099 20.2456C19.4951 20.5885 20.0843 20.9354 20.6695 21.2784V11.3975C20.4744 11.7404 20.2832 12.0874 20.0882 12.4303C21.126 11.872 22.1599 11.3098 23.1977 10.7516C24.8403 9.86237 26.4867 8.97716 28.1293 8.08797C28.5038 7.88461 28.8823 7.68125 29.2568 7.47789C28.6716 7.13498 28.0825 6.78807 27.4972 6.44515V16.33C27.4972 16.956 28.0357 17.5541 28.6677 17.5262C29.3037 17.4983 29.8382 16.9999 29.8382 16.33V6.44515C29.8382 5.50811 28.8511 4.99373 28.0786 5.41241C27.0408 5.97065 26.0068 6.53288 24.969 7.09111C23.3265 7.98031 21.68 8.86552 20.0374 9.75471C19.6629 9.95807 19.2844 10.1614 18.9099 10.3648C18.5509 10.5602 18.3286 10.9908 18.3286 11.3975V21.2784C18.3286 22.2154 19.3156 22.7298 20.0882 22.3111C21.126 21.7529 22.1599 21.1906 23.1977 20.6324C24.8403 19.7472 26.4867 18.858 28.1293 17.9728C28.5038 17.7694 28.8823 17.5661 29.2568 17.3627C29.7992 17.0716 30.0098 16.2542 29.6782 15.7279C29.3232 15.1617 28.656 14.9822 28.0786 15.2972Z" fill="#335F32"/>
<path d="M28.0786 15.2972C27.0408 15.8555 26.0068 16.4177 24.969 16.9759C23.3265 17.8611 21.68 18.7503 20.0374 19.6355C19.6629 19.8389 19.2844 20.0423 18.9099 20.2456C19.4951 20.5885 20.0843 20.9354 20.6695 21.2784V11.3975C20.4744 11.7404 20.2832 12.0874 20.0882 12.4303C21.126 11.872 22.1599 11.3098 23.1977 10.7516C24.8403 9.86237 26.4867 8.97716 28.1293 8.08797C28.5038 7.88461 28.8823 7.68125 29.2568 7.47789C28.6716 7.13498 28.0825 6.78807 27.4972 6.44515V16.33C27.4972 16.956 28.0357 17.5541 28.6677 17.5262C29.3037 17.4983 29.8382 16.9999 29.8382 16.33V6.44515C29.8382 5.50811 28.8511 4.99373 28.0786 5.41241C27.0408 5.97065 26.0068 6.53288 24.969 7.09111C23.3265 7.98031 21.68 8.86552 20.0374 9.75471C19.6629 9.95807 19.2844 10.1614 18.9099 10.3648C18.5509 10.5602 18.3286 10.9908 18.3286 11.3975V21.2784C18.3286 22.2154 19.3156 22.7298 20.0882 22.3111C21.126 21.7529 22.1599 21.1906 23.1977 20.6324C24.8403 19.7472 26.4867 18.858 28.1293 17.9728C28.5038 17.7694 28.8823 17.5661 29.2568 17.3627C29.7992 17.0716 30.0098 16.2542 29.6782 15.7279C29.3232 15.1617 28.656 14.9822 28.0786 15.2972Z" fill="black" fill-opacity="0.2"/>
<path d="M28.0783 5.40852C27.0405 5.96676 26.0066 6.52899 24.9688 7.08723C23.3262 7.97642 21.6797 8.86163 20.0372 9.75082C19.6626 9.95418 19.2842 10.1575 18.9096 10.3609H20.0918C19.054 9.80266 18.0201 9.24043 16.9823 8.6822C15.3397 7.793 13.6971 6.90779 12.0546 6.0186C11.68 5.81524 11.3016 5.61188 10.927 5.40852V7.47401C11.9648 6.91577 12.9988 6.35753 14.0366 5.7953C15.6791 4.91009 17.3217 4.0209 18.9643 3.13569C19.3388 2.93233 19.7173 2.72897 20.0918 2.52561H18.9096C19.9475 3.08385 20.9814 3.64209 22.0192 4.20432C23.6617 5.08953 25.3082 5.97872 26.9508 6.86393C27.3253 7.06729 27.7038 7.27065 28.0783 7.47401C28.6206 7.76509 29.3775 7.6335 29.678 7.04337C29.9628 6.48911 29.8379 5.71954 29.2566 5.40852C28.211 4.84231 27.1614 4.28008 26.1158 3.71387C24.4733 2.82467 22.8268 1.93946 21.1842 1.05027C20.8214 0.854885 20.4625 0.655514 20.0996 0.464118C19.6899 0.252784 19.2998 0.260759 18.8979 0.464118C18.8589 0.484055 18.8199 0.507979 18.7809 0.527916C18.5936 0.627602 18.4063 0.727287 18.223 0.83096C16.6506 1.68028 15.0861 2.52561 13.5177 3.37095C12.2809 4.04084 11.0285 4.69079 9.79948 5.37662C9.77997 5.38858 9.76046 5.39656 9.74095 5.40852C8.98015 5.81923 8.98015 7.0633 9.74095 7.47401C10.7866 8.04022 11.8361 8.60643 12.8817 9.16866C14.5243 10.0579 16.1707 10.9431 17.8133 11.8323C18.1761 12.0276 18.5312 12.231 18.8979 12.4184C19.3076 12.6297 19.6978 12.6218 20.0996 12.4184C20.1386 12.3985 20.1776 12.3745 20.2167 12.3546C20.4039 12.2549 20.5912 12.1513 20.7746 12.0516C22.343 11.2062 23.9075 10.3609 25.476 9.51158C26.7128 8.84169 27.9652 8.19174 29.1942 7.50591C29.2137 7.49394 29.2332 7.48597 29.2527 7.47401C29.795 7.18292 30.0057 6.3655 29.6741 5.83916C29.3229 5.27694 28.6557 5.0975 28.0783 5.40852Z" fill="#335F32"/>
<path d="M28.0783 5.40852C27.0405 5.96676 26.0066 6.52899 24.9688 7.08723C23.3262 7.97642 21.6797 8.86163 20.0372 9.75082C19.6626 9.95418 19.2842 10.1575 18.9096 10.3609H20.0918C19.054 9.80266 18.0201 9.24043 16.9823 8.6822C15.3397 7.793 13.6971 6.90779 12.0546 6.0186C11.68 5.81524 11.3016 5.61188 10.927 5.40852V7.47401C11.9648 6.91577 12.9988 6.35753 14.0366 5.7953C15.6791 4.91009 17.3217 4.0209 18.9643 3.13569C19.3388 2.93233 19.7173 2.72897 20.0918 2.52561H18.9096C19.9475 3.08385 20.9814 3.64209 22.0192 4.20432C23.6617 5.08953 25.3082 5.97872 26.9508 6.86393C27.3253 7.06729 27.7038 7.27065 28.0783 7.47401C28.6206 7.76509 29.3775 7.6335 29.678 7.04337C29.9628 6.48911 29.8379 5.71954 29.2566 5.40852C28.211 4.84231 27.1614 4.28008 26.1158 3.71387C24.4733 2.82467 22.8268 1.93946 21.1842 1.05027C20.8214 0.854885 20.4625 0.655514 20.0996 0.464118C19.6899 0.252784 19.2998 0.260759 18.8979 0.464118C18.8589 0.484055 18.8199 0.507979 18.7809 0.527916C18.5936 0.627602 18.4063 0.727287 18.223 0.83096C16.6506 1.68028 15.0861 2.52561 13.5177 3.37095C12.2809 4.04084 11.0285 4.69079 9.79948 5.37662C9.77997 5.38858 9.76046 5.39656 9.74095 5.40852C8.98015 5.81923 8.98015 7.0633 9.74095 7.47401C10.7866 8.04022 11.8361 8.60643 12.8817 9.16866C14.5243 10.0579 16.1707 10.9431 17.8133 11.8323C18.1761 12.0276 18.5312 12.231 18.8979 12.4184C19.3076 12.6297 19.6978 12.6218 20.0996 12.4184C20.1386 12.3985 20.1776 12.3745 20.2167 12.3546C20.4039 12.2549 20.5912 12.1513 20.7746 12.0516C22.343 11.2062 23.9075 10.3609 25.476 9.51158C26.7128 8.84169 27.9652 8.19174 29.1942 7.50591C29.2137 7.49394 29.2332 7.48597 29.2527 7.47401C29.795 7.18292 30.0057 6.3655 29.6741 5.83916C29.3229 5.27694 28.6557 5.0975 28.0783 5.40852Z" fill="black" fill-opacity="0.2"/>
<path d="M23.4913 2.93573C22.4574 3.49397 21.4196 4.05619 20.3857 4.61443C18.7431 5.50363 17.1006 6.38884 15.458 7.27803C15.0835 7.48139 14.705 7.68475 14.3305 7.88811C13.7881 8.17919 13.5775 8.99661 13.9091 9.52295C14.2641 10.0852 14.9313 10.2646 15.5087 9.95359C16.5426 9.39535 17.5805 8.83313 18.6144 8.27489C20.2569 7.38569 21.8995 6.50048 23.5421 5.61129C23.9166 5.40793 24.2951 5.20457 24.6696 5.00121C25.2119 4.71013 25.4226 3.89271 25.091 3.36637C24.7359 2.80414 24.0727 2.62471 23.4913 2.93573ZM10.9205 35.0744C9.88657 34.5161 8.84875 33.9579 7.81484 33.3996C6.17228 32.5144 4.52972 31.6252 2.88716 30.74C2.51261 30.5367 2.13416 30.3333 1.75961 30.1299C1.95468 30.4729 2.14586 30.8198 2.34094 31.1627V21.2819C1.7557 21.6248 1.16657 21.9717 0.581333 22.3146C1.61525 22.8728 2.65307 23.4351 3.68698 23.9933C5.32954 24.8825 6.9721 25.7677 8.61466 26.6569C8.98921 26.8603 9.36766 27.0636 9.74221 27.267C9.54713 26.9241 9.35596 26.5772 9.16088 26.2342V36.1111C9.16088 36.7371 9.69929 37.3352 10.3313 37.3073C10.9673 37.2794 11.5018 36.781 11.5018 36.1111V26.2342C11.5018 25.8275 11.2833 25.3969 10.9205 25.2015C9.88657 24.6433 8.84875 24.081 7.81484 23.5228C6.17228 22.6336 4.52972 21.7484 2.88716 20.8592C2.51261 20.6558 2.13416 20.4525 1.75961 20.2491C0.983195 19.8304 0 20.3448 0 21.2819V31.1627C0 31.5694 0.218488 32 0.581333 32.1954C1.61525 32.7537 2.65307 33.3119 3.68698 33.8702C5.32954 34.7554 6.9721 35.6446 8.61466 36.5298C8.98921 36.7331 9.36766 36.9365 9.74221 37.1398C10.2845 37.4309 11.0414 37.2993 11.3419 36.7092C11.6267 36.1589 11.5018 35.3854 10.9205 35.0744Z" fill="#335F32"/>
<path d="M23.4913 2.93573C22.4574 3.49397 21.4196 4.05619 20.3857 4.61443C18.7431 5.50363 17.1006 6.38884 15.458 7.27803C15.0835 7.48139 14.705 7.68475 14.3305 7.88811C13.7881 8.17919 13.5775 8.99661 13.9091 9.52295C14.2641 10.0852 14.9313 10.2646 15.5087 9.95359C16.5426 9.39535 17.5805 8.83313 18.6144 8.27489C20.2569 7.38569 21.8995 6.50048 23.5421 5.61129C23.9166 5.40793 24.2951 5.20457 24.6696 5.00121C25.2119 4.71013 25.4226 3.89271 25.091 3.36637C24.7359 2.80414 24.0727 2.62471 23.4913 2.93573ZM10.9205 35.0744C9.88657 34.5161 8.84875 33.9579 7.81484 33.3996C6.17228 32.5144 4.52972 31.6252 2.88716 30.74C2.51261 30.5367 2.13416 30.3333 1.75961 30.1299C1.95468 30.4729 2.14586 30.8198 2.34094 31.1627V21.2819C1.7557 21.6248 1.16657 21.9717 0.581333 22.3146C1.61525 22.8728 2.65307 23.4351 3.68698 23.9933C5.32954 24.8825 6.9721 25.7677 8.61466 26.6569C8.98921 26.8603 9.36766 27.0636 9.74221 27.267C9.54713 26.9241 9.35596 26.5772 9.16088 26.2342V36.1111C9.16088 36.7371 9.69929 37.3352 10.3313 37.3073C10.9673 37.2794 11.5018 36.781 11.5018 36.1111V26.2342C11.5018 25.8275 11.2833 25.3969 10.9205 25.2015C9.88657 24.6433 8.84875 24.081 7.81484 23.5228C6.17228 22.6336 4.52972 21.7484 2.88716 20.8592C2.51261 20.6558 2.13416 20.4525 1.75961 20.2491C0.983195 19.8304 0 20.3448 0 21.2819V31.1627C0 31.5694 0.218488 32 0.581333 32.1954C1.61525 32.7537 2.65307 33.3119 3.68698 33.8702C5.32954 34.7554 6.9721 35.6446 8.61466 36.5298C8.98921 36.7331 9.36766 36.9365 9.74221 37.1398C10.2845 37.4309 11.0414 37.2993 11.3419 36.7092C11.6267 36.1589 11.5018 35.3854 10.9205 35.0744Z" fill="black" fill-opacity="0.2"/>
<path d="M18.9113 30.1302C17.8735 30.6885 16.8395 31.2467 15.8017 31.805C14.1592 32.6902 12.5127 33.5794 10.8701 34.4646C10.4956 34.6679 10.1171 34.8713 9.74259 35.0746C10.3278 35.4176 10.917 35.7645 11.5022 36.1074V26.2305C11.3071 26.5735 11.1159 26.9204 10.9209 27.2633C11.9587 26.705 12.9926 26.1428 14.0304 25.5846C15.673 24.6954 17.3194 23.8102 18.962 22.921C19.3365 22.7176 19.715 22.5143 20.0895 22.3109C19.5043 21.968 18.9152 21.6211 18.3299 21.2782V31.163C18.3299 31.789 18.8684 32.3871 19.5004 32.3592C20.1364 32.3313 20.6709 31.8329 20.6709 31.163V21.2782C20.6709 20.3411 19.6838 19.8267 18.9113 20.2454C17.8735 20.8037 16.8395 21.3659 15.8017 21.9241C14.1592 22.8133 12.5127 23.6985 10.8701 24.5877C10.4956 24.7911 10.1171 24.9944 9.74259 25.1978C9.38364 25.3932 9.16125 25.8238 9.16125 26.2305V36.1074C9.16125 37.0444 10.1484 37.5588 10.9209 37.1401C11.9587 36.5819 12.9926 36.0236 14.0304 35.4654C15.673 34.5802 17.3194 33.691 18.962 32.8058C19.3365 32.6024 19.715 32.3991 20.0895 32.1957C20.6319 31.9046 20.8425 31.0872 20.5109 30.5609C20.1559 29.9947 19.4887 29.8192 18.9113 30.1302Z" fill="#335F32"/>
<path d="M18.9113 30.1302C17.8735 30.6885 16.8395 31.2467 15.8017 31.805C14.1592 32.6902 12.5127 33.5794 10.8701 34.4646C10.4956 34.6679 10.1171 34.8713 9.74259 35.0746C10.3278 35.4176 10.917 35.7645 11.5022 36.1074V26.2305C11.3071 26.5735 11.1159 26.9204 10.9209 27.2633C11.9587 26.705 12.9926 26.1428 14.0304 25.5846C15.673 24.6954 17.3194 23.8102 18.962 22.921C19.3365 22.7176 19.715 22.5143 20.0895 22.3109C19.5043 21.968 18.9152 21.6211 18.3299 21.2782V31.163C18.3299 31.789 18.8684 32.3871 19.5004 32.3592C20.1364 32.3313 20.6709 31.8329 20.6709 31.163V21.2782C20.6709 20.3411 19.6838 19.8267 18.9113 20.2454C17.8735 20.8037 16.8395 21.3659 15.8017 21.9241C14.1592 22.8133 12.5127 23.6985 10.8701 24.5877C10.4956 24.7911 10.1171 24.9944 9.74259 25.1978C9.38364 25.3932 9.16125 25.8238 9.16125 26.2305V36.1074C9.16125 37.0444 10.1484 37.5588 10.9209 37.1401C11.9587 36.5819 12.9926 36.0236 14.0304 35.4654C15.673 34.5802 17.3194 33.691 18.962 32.8058C19.3365 32.6024 19.715 32.3991 20.0895 32.1957C20.6319 31.9046 20.8425 31.0872 20.5109 30.5609C20.1559 29.9947 19.4887 29.8192 18.9113 30.1302Z" fill="black" fill-opacity="0.2"/>
<path d="M18.9103 20.2455C17.8725 20.8038 16.8386 21.366 15.8007 21.9242C14.1582 22.8134 12.5117 23.6986 10.8692 24.5878C10.4946 24.7912 10.1162 24.9945 9.74161 25.1979H10.9238C9.88987 24.6397 8.85205 24.0774 7.81814 23.5192C6.17558 22.63 4.53302 21.7448 2.89046 20.8556C2.51591 20.6522 2.13746 20.4489 1.76291 20.2455V22.311C2.80072 21.7528 3.83464 21.1905 4.87245 20.6323C6.51501 19.7431 8.15757 18.8579 9.80013 17.9687C10.1747 17.7653 10.5531 17.562 10.9277 17.3586H9.74551C10.7833 17.9169 11.8172 18.4791 12.8551 19.0373C14.4976 19.9225 16.1402 20.8117 17.7827 21.6969C18.1573 21.9003 18.5357 22.1037 18.9103 22.307C19.4526 22.5981 20.2095 22.4665 20.5099 21.8764C20.7947 21.3221 20.6699 20.5525 20.0886 20.2415C19.0429 19.6753 17.9934 19.1131 16.9478 18.5469C15.3052 17.6577 13.6588 16.7725 12.0162 15.8833C11.6534 15.6879 11.2983 15.4845 10.9316 15.2971C10.5219 15.0858 10.1318 15.0938 9.72991 15.2971C9.69089 15.3171 9.65187 15.341 9.61286 15.3609C9.42558 15.4606 9.23831 15.5643 9.05493 15.664C7.4865 16.5093 5.92198 17.3586 4.35355 18.204C3.11675 18.8738 1.86435 19.5238 0.635353 20.2136C0.615845 20.2256 0.596338 20.2336 0.57683 20.2455C-0.183976 20.6562 -0.183976 21.9003 0.57683 22.311C1.62245 22.8772 2.67197 23.4434 3.71759 24.0057C5.36015 24.8948 7.00271 25.7801 8.64917 26.6693C9.01202 26.8646 9.36706 27.068 9.73381 27.2554C10.1435 27.4667 10.5336 27.4588 10.9355 27.2554C10.9745 27.2355 11.0135 27.2115 11.0525 27.1916C11.2398 27.0919 11.4271 26.9882 11.6105 26.8886C13.1789 26.0432 14.7434 25.1939 16.3118 24.3486C17.5486 23.6787 18.801 23.0287 20.03 22.3389C20.0495 22.327 20.0691 22.319 20.0886 22.307C20.6309 22.0159 20.8416 21.1985 20.5099 20.6722C20.1549 20.1099 19.4877 19.9305 18.9103 20.2455Z" fill="#335F32"/>
<path d="M18.9103 20.2455C17.8725 20.8038 16.8386 21.366 15.8007 21.9242C14.1582 22.8134 12.5117 23.6986 10.8692 24.5878C10.4946 24.7912 10.1162 24.9945 9.74161 25.1979H10.9238C9.88987 24.6397 8.85205 24.0774 7.81814 23.5192C6.17558 22.63 4.53302 21.7448 2.89046 20.8556C2.51591 20.6522 2.13746 20.4489 1.76291 20.2455V22.311C2.80072 21.7528 3.83464 21.1905 4.87245 20.6323C6.51501 19.7431 8.15757 18.8579 9.80013 17.9687C10.1747 17.7653 10.5531 17.562 10.9277 17.3586H9.74551C10.7833 17.9169 11.8172 18.4791 12.8551 19.0373C14.4976 19.9225 16.1402 20.8117 17.7827 21.6969C18.1573 21.9003 18.5357 22.1037 18.9103 22.307C19.4526 22.5981 20.2095 22.4665 20.5099 21.8764C20.7947 21.3221 20.6699 20.5525 20.0886 20.2415C19.0429 19.6753 17.9934 19.1131 16.9478 18.5469C15.3052 17.6577 13.6588 16.7725 12.0162 15.8833C11.6534 15.6879 11.2983 15.4845 10.9316 15.2971C10.5219 15.0858 10.1318 15.0938 9.72991 15.2971C9.69089 15.3171 9.65187 15.341 9.61286 15.3609C9.42558 15.4606 9.23831 15.5643 9.05493 15.664C7.4865 16.5093 5.92198 17.3586 4.35355 18.204C3.11675 18.8738 1.86435 19.5238 0.635353 20.2136C0.615845 20.2256 0.596338 20.2336 0.57683 20.2455C-0.183976 20.6562 -0.183976 21.9003 0.57683 22.311C1.62245 22.8772 2.67197 23.4434 3.71759 24.0057C5.36015 24.8948 7.00271 25.7801 8.64917 26.6693C9.01202 26.8646 9.36706 27.068 9.73381 27.2554C10.1435 27.4667 10.5336 27.4588 10.9355 27.2554C10.9745 27.2355 11.0135 27.2115 11.0525 27.1916C11.2398 27.0919 11.4271 26.9882 11.6105 26.8886C13.1789 26.0432 14.7434 25.1939 16.3118 24.3486C17.5486 23.6787 18.801 23.0287 20.03 22.3389C20.0495 22.327 20.0691 22.319 20.0886 22.307C20.6309 22.0159 20.8416 21.1985 20.5099 20.6722C20.1549 20.1099 19.4877 19.9305 18.9103 20.2455Z" fill="black" fill-opacity="0.2"/>
<path d="M14.3231 17.7777C13.2892 18.336 12.2514 18.8982 11.2175 19.4564C9.57493 20.3456 7.93237 21.2308 6.28981 22.12C5.91526 22.3234 5.5368 22.5267 5.16225 22.7301C4.61994 23.0212 4.40925 23.8386 4.74088 24.3649C5.09593 24.9272 5.76309 25.1066 6.34053 24.7956C7.37444 24.2374 8.41226 23.6751 9.44617 23.1169C11.0887 22.2277 12.7313 21.3425 14.3739 20.4533C14.7484 20.2499 15.1269 20.0466 15.5014 19.8432C16.0437 19.5521 16.2544 18.7347 15.9228 18.2084C15.5677 17.6422 14.9006 17.4627 14.3231 17.7777ZM29.2583 35.0752C28.2205 34.5169 27.1866 33.9587 26.1488 33.4004C24.5062 32.5152 22.8598 31.626 21.2172 30.7408C20.8427 30.5375 20.4642 30.3341 20.0896 30.1308C20.2847 30.4737 20.4759 30.8206 20.671 31.1635V21.2787C20.0857 21.6216 19.4966 21.9685 18.9114 22.3114C19.9492 22.8697 20.9831 23.4319 22.0209 23.9901C23.6635 24.8793 25.3099 25.7645 26.9525 26.6537C27.3271 26.8571 27.7055 27.0604 28.0801 27.2638C27.885 26.9209 27.6938 26.574 27.4987 26.2311V36.1079C27.4987 36.7339 28.0371 37.332 28.6692 37.3041C29.3052 37.2762 29.8397 36.7778 29.8397 36.1079V26.2311C29.8397 25.8243 29.6212 25.3937 29.2583 25.1983C28.2205 24.6401 27.1866 24.0779 26.1488 23.5196C24.5062 22.6304 22.8598 21.7452 21.2172 20.856C20.8427 20.6527 20.4642 20.4493 20.0896 20.2459C19.3132 19.8273 18.33 20.3416 18.33 21.2787V31.1635C18.33 31.5702 18.5485 32.0009 18.9114 32.1962C19.9492 32.7545 20.9831 33.3127 22.0209 33.871C23.6635 34.7562 25.3099 35.6454 26.9525 36.5306C27.3271 36.7339 27.7055 36.9373 28.0801 37.1406C28.6224 37.4317 29.3793 37.3001 29.6797 36.71C29.9645 36.1597 29.8397 35.3862 29.2583 35.0752Z" fill="#335F32"/>
<path d="M14.3231 17.7777C13.2892 18.336 12.2514 18.8982 11.2175 19.4564C9.57493 20.3456 7.93237 21.2308 6.28981 22.12C5.91526 22.3234 5.5368 22.5267 5.16225 22.7301C4.61994 23.0212 4.40925 23.8386 4.74088 24.3649C5.09593 24.9272 5.76309 25.1066 6.34053 24.7956C7.37444 24.2374 8.41226 23.6751 9.44617 23.1169C11.0887 22.2277 12.7313 21.3425 14.3739 20.4533C14.7484 20.2499 15.1269 20.0466 15.5014 19.8432C16.0437 19.5521 16.2544 18.7347 15.9228 18.2084C15.5677 17.6422 14.9006 17.4627 14.3231 17.7777ZM29.2583 35.0752C28.2205 34.5169 27.1866 33.9587 26.1488 33.4004C24.5062 32.5152 22.8598 31.626 21.2172 30.7408C20.8427 30.5375 20.4642 30.3341 20.0896 30.1308C20.2847 30.4737 20.4759 30.8206 20.671 31.1635V21.2787C20.0857 21.6216 19.4966 21.9685 18.9114 22.3114C19.9492 22.8697 20.9831 23.4319 22.0209 23.9901C23.6635 24.8793 25.3099 25.7645 26.9525 26.6537C27.3271 26.8571 27.7055 27.0604 28.0801 27.2638C27.885 26.9209 27.6938 26.574 27.4987 26.2311V36.1079C27.4987 36.7339 28.0371 37.332 28.6692 37.3041C29.3052 37.2762 29.8397 36.7778 29.8397 36.1079V26.2311C29.8397 25.8243 29.6212 25.3937 29.2583 25.1983C28.2205 24.6401 27.1866 24.0779 26.1488 23.5196C24.5062 22.6304 22.8598 21.7452 21.2172 20.856C20.8427 20.6527 20.4642 20.4493 20.0896 20.2459C19.3132 19.8273 18.33 20.3416 18.33 21.2787V31.1635C18.33 31.5702 18.5485 32.0009 18.9114 32.1962C19.9492 32.7545 20.9831 33.3127 22.0209 33.871C23.6635 34.7562 25.3099 35.6454 26.9525 36.5306C27.3271 36.7339 27.7055 36.9373 28.0801 37.1406C28.6224 37.4317 29.3793 37.3001 29.6797 36.71C29.9645 36.1597 29.8397 35.3862 29.2583 35.0752Z" fill="black" fill-opacity="0.2"/>
<path d="M37.2411 30.1302C36.2072 30.6885 35.1694 31.2467 34.1355 31.805C32.4929 32.6902 30.8503 33.5794 29.2078 34.4646C28.8332 34.6679 28.4548 34.8713 28.0802 35.0746C28.6655 35.4176 29.2546 35.7645 29.8398 36.1074V26.2305C29.6448 26.5735 29.4536 26.9204 29.2585 27.2633C30.2924 26.705 31.3302 26.1428 32.3642 25.5846C34.0067 24.6954 35.6493 23.8102 37.2918 22.921C37.6664 22.7176 38.0448 22.5143 38.4194 22.3109C37.8342 21.968 37.245 21.6211 36.6598 21.2782V31.159C36.6598 31.785 37.1982 32.3831 37.8302 32.3552C38.4662 32.3273 39.0007 31.8289 39.0007 31.159V21.2782C39.0007 20.3411 38.0136 19.8267 37.2411 20.2454C36.2072 20.8037 35.1694 21.3659 34.1355 21.9241C32.4929 22.8133 30.8503 23.6985 29.2078 24.5877C28.8332 24.7911 28.4548 24.9944 28.0802 25.1978C27.7213 25.3932 27.4989 25.8238 27.4989 26.2305V36.1074C27.4989 37.0444 28.486 37.5588 29.2585 37.1401C30.2924 36.5819 31.3302 36.0236 32.3642 35.4654C34.0067 34.5802 35.6493 33.691 37.2918 32.8058C37.6664 32.6024 38.0448 32.3991 38.4194 32.1957C38.9617 31.9046 39.1724 31.0872 38.8408 30.5609C38.4896 29.9947 37.8224 29.8192 37.2411 30.1302Z" fill="#335F32"/>
<path d="M37.2411 30.1302C36.2072 30.6885 35.1694 31.2467 34.1355 31.805C32.4929 32.6902 30.8503 33.5794 29.2078 34.4646C28.8332 34.6679 28.4548 34.8713 28.0802 35.0746C28.6655 35.4176 29.2546 35.7645 29.8398 36.1074V26.2305C29.6448 26.5735 29.4536 26.9204 29.2585 27.2633C30.2924 26.705 31.3302 26.1428 32.3642 25.5846C34.0067 24.6954 35.6493 23.8102 37.2918 22.921C37.6664 22.7176 38.0448 22.5143 38.4194 22.3109C37.8342 21.968 37.245 21.6211 36.6598 21.2782V31.159C36.6598 31.785 37.1982 32.3831 37.8302 32.3552C38.4662 32.3273 39.0007 31.8289 39.0007 31.159V21.2782C39.0007 20.3411 38.0136 19.8267 37.2411 20.2454C36.2072 20.8037 35.1694 21.3659 34.1355 21.9241C32.4929 22.8133 30.8503 23.6985 29.2078 24.5877C28.8332 24.7911 28.4548 24.9944 28.0802 25.1978C27.7213 25.3932 27.4989 25.8238 27.4989 26.2305V36.1074C27.4989 37.0444 28.486 37.5588 29.2585 37.1401C30.2924 36.5819 31.3302 36.0236 32.3642 35.4654C34.0067 34.5802 35.6493 33.691 37.2918 32.8058C37.6664 32.6024 38.0448 32.3991 38.4194 32.1957C38.9617 31.9046 39.1724 31.0872 38.8408 30.5609C38.4896 29.9947 37.8224 29.8192 37.2411 30.1302Z" fill="black" fill-opacity="0.2"/>
<path d="M37.2417 20.2493C36.2078 20.8076 35.17 21.3698 34.1361 21.928C32.4935 22.8172 30.8509 23.7024 29.2084 24.5916C28.8338 24.795 28.4554 24.9984 28.0808 25.2017H29.263C28.2252 24.6435 27.1913 24.0813 26.1535 23.523C24.5109 22.6338 22.8644 21.7486 21.2219 20.8594C20.8473 20.6561 20.4689 20.4527 20.0943 20.2493V22.3148C21.1321 21.7566 22.1661 21.1944 23.2039 20.6361C24.8464 19.7509 26.4929 18.8617 28.1355 17.9765C28.51 17.7732 28.8885 17.5698 29.263 17.3664H28.0808C29.1148 17.9247 30.1526 18.4869 31.1865 19.0451C32.829 19.9343 34.4716 20.8195 36.1142 21.7087C36.4887 21.9121 36.8672 22.1155 37.2417 22.3188C37.784 22.6099 38.5409 22.4783 38.8414 21.8882C39.1262 21.3339 39.0013 20.5643 38.42 20.2533C37.3744 19.6871 36.3248 19.1209 35.2792 18.5547C33.6367 17.6655 31.9941 16.7803 30.3476 15.8911C29.9848 15.6957 29.6298 15.4923 29.263 15.3049C28.8533 15.0936 28.4632 15.1016 28.0613 15.3049C28.0223 15.3249 27.9833 15.3488 27.9443 15.3687C27.757 15.4684 27.5697 15.5681 27.3864 15.6718C25.8179 16.5171 24.2534 17.3624 22.685 18.2078C21.4482 18.8777 20.1958 19.5276 18.9668 20.2135C18.9473 20.2254 18.9278 20.2334 18.9083 20.2454C18.1474 20.6561 18.1474 21.9001 18.9083 22.3108C19.9539 22.8771 21.0034 23.4433 22.049 24.0095C23.6916 24.8987 25.338 25.7879 26.9806 26.6731C27.3434 26.8685 27.7024 27.0718 28.0652 27.2592C28.4749 27.4706 28.865 27.4626 29.2669 27.2592C29.3059 27.2393 29.3449 27.2154 29.384 27.1954C29.5712 27.0957 29.7585 26.9921 29.9419 26.8924C31.5064 26.0471 33.0748 25.2017 34.6394 24.3524C35.8762 23.6825 37.1286 23.0326 38.3537 22.3467C38.3732 22.3348 38.3927 22.3268 38.4122 22.3148C38.9545 22.0237 39.1652 21.2063 38.8336 20.68C38.4902 20.1138 37.823 19.9343 37.2417 20.2493Z" fill="#335F32"/>
<path d="M37.2417 20.2493C36.2078 20.8076 35.17 21.3698 34.1361 21.928C32.4935 22.8172 30.8509 23.7024 29.2084 24.5916C28.8338 24.795 28.4554 24.9984 28.0808 25.2017H29.263C28.2252 24.6435 27.1913 24.0813 26.1535 23.523C24.5109 22.6338 22.8644 21.7486 21.2219 20.8594C20.8473 20.6561 20.4689 20.4527 20.0943 20.2493V22.3148C21.1321 21.7566 22.1661 21.1944 23.2039 20.6361C24.8464 19.7509 26.4929 18.8617 28.1355 17.9765C28.51 17.7732 28.8885 17.5698 29.263 17.3664H28.0808C29.1148 17.9247 30.1526 18.4869 31.1865 19.0451C32.829 19.9343 34.4716 20.8195 36.1142 21.7087C36.4887 21.9121 36.8672 22.1155 37.2417 22.3188C37.784 22.6099 38.5409 22.4783 38.8414 21.8882C39.1262 21.3339 39.0013 20.5643 38.42 20.2533C37.3744 19.6871 36.3248 19.1209 35.2792 18.5547C33.6367 17.6655 31.9941 16.7803 30.3476 15.8911C29.9848 15.6957 29.6298 15.4923 29.263 15.3049C28.8533 15.0936 28.4632 15.1016 28.0613 15.3049C28.0223 15.3249 27.9833 15.3488 27.9443 15.3687C27.757 15.4684 27.5697 15.5681 27.3864 15.6718C25.8179 16.5171 24.2534 17.3624 22.685 18.2078C21.4482 18.8777 20.1958 19.5276 18.9668 20.2135C18.9473 20.2254 18.9278 20.2334 18.9083 20.2454C18.1474 20.6561 18.1474 21.9001 18.9083 22.3108C19.9539 22.8771 21.0034 23.4433 22.049 24.0095C23.6916 24.8987 25.338 25.7879 26.9806 26.6731C27.3434 26.8685 27.7024 27.0718 28.0652 27.2592C28.4749 27.4706 28.865 27.4626 29.2669 27.2592C29.3059 27.2393 29.3449 27.2154 29.384 27.1954C29.5712 27.0957 29.7585 26.9921 29.9419 26.8924C31.5064 26.0471 33.0748 25.2017 34.6394 24.3524C35.8762 23.6825 37.1286 23.0326 38.3537 22.3467C38.3732 22.3348 38.3927 22.3268 38.4122 22.3148C38.9545 22.0237 39.1652 21.2063 38.8336 20.68C38.4902 20.1138 37.823 19.9343 37.2417 20.2493Z" fill="black" fill-opacity="0.2"/>
<path d="M32.6608 17.7777C31.6269 18.336 30.589 18.8982 29.5551 19.4564C27.9126 20.3456 26.27 21.2308 24.6275 22.12C24.2529 22.3234 23.8744 22.5267 23.4999 22.7301C22.9576 23.0212 22.7469 23.8386 23.0785 24.3649C23.4336 24.9272 24.1007 25.1066 24.6782 24.7956C25.7121 24.2374 26.7499 23.6751 27.7838 23.1169C29.4264 22.2277 31.0689 21.3425 32.7115 20.4533C33.086 20.2499 33.4645 20.0466 33.8391 19.8432C34.3814 19.5521 34.5921 18.7347 34.2604 18.2084C33.9054 17.6422 33.2421 17.4627 32.6608 17.7777Z" fill="#335F32"/>
<path d="M32.6608 17.7777C31.6269 18.336 30.589 18.8982 29.5551 19.4564C27.9126 20.3456 26.27 21.2308 24.6275 22.12C24.2529 22.3234 23.8744 22.5267 23.4999 22.7301C22.9576 23.0212 22.7469 23.8386 23.0785 24.3649C23.4336 24.9272 24.1007 25.1066 24.6782 24.7956C25.7121 24.2374 26.7499 23.6751 27.7838 23.1169C29.4264 22.2277 31.0689 21.3425 32.7115 20.4533C33.086 20.2499 33.4645 20.0466 33.8391 19.8432C34.3814 19.5521 34.5921 18.7347 34.2604 18.2084C33.9054 17.6422 33.2421 17.4627 32.6608 17.7777Z" fill="black" fill-opacity="0.2"/>
</svg>
