<svg width="41" height="36" viewBox="0 0 41 36" fill="none" xmlns="http://www.w3.org/2000/svg">
<path d="M7.83181 29.9115C7.34247 29.9118 6.86488 29.765 6.46369 29.4911C6.06249 29.2172 5.75707 28.8293 5.58877 28.3801C4.17279 24.5344 3.58013 20.4452 3.84756 16.3663C3.84756 16.292 3.78673 16.2771 3.74871 16.2771H2.40289C1.96013 16.2799 1.5253 16.1622 1.14699 15.9373C0.768677 15.7124 0.461794 15.389 0.260632 15.0033C0.0594705 14.6177 -0.0280446 14.1849 0.00786679 13.7535C0.0437782 13.322 0.201701 12.9087 0.463988 12.56C3.92414 7.82314 8.28735 3.78424 13.3139 0.665133C13.6932 0.432176 14.132 0.308594 14.5799 0.308594C15.0278 0.308594 15.4666 0.432176 15.8459 0.665133C20.8742 3.78217 25.2378 7.82141 28.6959 12.56C28.9582 12.9087 29.1161 13.322 29.152 13.7535C29.1879 14.1849 29.1004 14.6177 28.8992 15.0033C28.6981 15.389 28.3912 15.7124 28.0129 15.9373C27.6346 16.1622 27.1997 16.2799 26.757 16.2771H25.4112C25.3979 16.2716 25.3837 16.2687 25.3693 16.2687C25.355 16.2687 25.3407 16.2716 25.3275 16.2771C25.3509 16.575 25.2543 16.87 25.0582 17.0992C24.8622 17.3284 24.5823 17.4736 24.2782 17.5038C24.1309 17.5203 23.9816 17.5082 23.8391 17.4681C23.6965 17.4281 23.5635 17.3608 23.4476 17.2703C23.3317 17.1798 23.2353 17.0678 23.1638 16.9407C23.0924 16.8137 23.0473 16.674 23.0313 16.5299C23.0103 16.2155 23.0555 15.9002 23.164 15.6035C23.2726 15.3069 23.4422 15.0352 23.6623 14.8051C23.8871 14.5718 24.158 14.3855 24.4586 14.2577C24.7593 14.1299 25.0833 14.0632 25.4112 14.0617H26.757C26.7778 14.0632 26.7985 14.0583 26.8163 14.0476C26.834 14.0369 26.8479 14.0211 26.8558 14.0022C26.8682 13.9876 26.8749 13.9692 26.8749 13.9502C26.8749 13.9312 26.8682 13.9128 26.8558 13.8981C23.568 9.3785 19.4192 5.5215 14.637 2.53857C14.6199 2.52799 14.6001 2.52237 14.5799 2.52237C14.5597 2.52237 14.54 2.52799 14.5229 2.53857C9.7443 5.51114 5.59793 9.35822 2.31164 13.8684C2.29928 13.883 2.29252 13.9014 2.29252 13.9204C2.29252 13.9394 2.29928 13.9578 2.31164 13.9725C2.3196 13.9913 2.33345 14.0072 2.3512 14.0179C2.36895 14.0286 2.38971 14.0335 2.41049 14.0319H3.74871C4.07652 14.0311 4.40098 14.0964 4.70174 14.2239C5.00251 14.3514 5.2731 14.5383 5.49654 14.7728C5.71998 15.0073 5.89146 15.2844 6.00023 15.5868C6.109 15.8891 6.15271 16.2102 6.12862 16.5299C5.87311 20.3153 6.41928 24.1116 7.73296 27.6813C7.74284 27.6981 7.75733 27.7119 7.7748 27.7211C7.79226 27.7303 7.81201 27.7345 7.83181 27.7333C8.13429 27.7333 8.42439 27.8508 8.63828 28.0599C8.85217 28.2691 8.97233 28.5527 8.97233 28.8484C8.97233 29.1442 8.85217 29.4278 8.63828 29.637C8.42439 29.8461 8.13429 29.9636 7.83181 29.9636V29.9115Z" fill="#335F32"/>
<path d="M7.83181 29.9115C7.34247 29.9118 6.86488 29.765 6.46369 29.4911C6.06249 29.2172 5.75707 28.8293 5.58877 28.3801C4.17279 24.5344 3.58013 20.4452 3.84756 16.3663C3.84756 16.292 3.78673 16.2771 3.74871 16.2771H2.40289C1.96013 16.2799 1.5253 16.1622 1.14699 15.9373C0.768677 15.7124 0.461794 15.389 0.260632 15.0033C0.0594705 14.6177 -0.0280446 14.1849 0.00786679 13.7535C0.0437782 13.322 0.201701 12.9087 0.463988 12.56C3.92414 7.82314 8.28735 3.78424 13.3139 0.665133C13.6932 0.432176 14.132 0.308594 14.5799 0.308594C15.0278 0.308594 15.4666 0.432176 15.8459 0.665133C20.8742 3.78217 25.2378 7.82141 28.6959 12.56C28.9582 12.9087 29.1161 13.322 29.152 13.7535C29.1879 14.1849 29.1004 14.6177 28.8992 15.0033C28.6981 15.389 28.3912 15.7124 28.0129 15.9373C27.6346 16.1622 27.1997 16.2799 26.757 16.2771H25.4112C25.3979 16.2716 25.3837 16.2687 25.3693 16.2687C25.355 16.2687 25.3407 16.2716 25.3275 16.2771C25.3509 16.575 25.2543 16.87 25.0582 17.0992C24.8622 17.3284 24.5823 17.4736 24.2782 17.5038C24.1309 17.5203 23.9816 17.5082 23.8391 17.4681C23.6965 17.4281 23.5635 17.3608 23.4476 17.2703C23.3317 17.1798 23.2353 17.0678 23.1638 16.9407C23.0924 16.8137 23.0473 16.674 23.0313 16.5299C23.0103 16.2155 23.0555 15.9002 23.164 15.6035C23.2726 15.3069 23.4422 15.0352 23.6623 14.8051C23.8871 14.5718 24.158 14.3855 24.4586 14.2577C24.7593 14.1299 25.0833 14.0632 25.4112 14.0617H26.757C26.7778 14.0632 26.7985 14.0583 26.8163 14.0476C26.834 14.0369 26.8479 14.0211 26.8558 14.0022C26.8682 13.9876 26.8749 13.9692 26.8749 13.9502C26.8749 13.9312 26.8682 13.9128 26.8558 13.8981C23.568 9.3785 19.4192 5.5215 14.637 2.53857C14.6199 2.52799 14.6001 2.52237 14.5799 2.52237C14.5597 2.52237 14.54 2.52799 14.5229 2.53857C9.7443 5.51114 5.59793 9.35822 2.31164 13.8684C2.29928 13.883 2.29252 13.9014 2.29252 13.9204C2.29252 13.9394 2.29928 13.9578 2.31164 13.9725C2.3196 13.9913 2.33345 14.0072 2.3512 14.0179C2.36895 14.0286 2.38971 14.0335 2.41049 14.0319H3.74871C4.07652 14.0311 4.40098 14.0964 4.70174 14.2239C5.00251 14.3514 5.2731 14.5383 5.49654 14.7728C5.71998 15.0073 5.89146 15.2844 6.00023 15.5868C6.109 15.8891 6.15271 16.2102 6.12862 16.5299C5.87311 20.3153 6.41928 24.1116 7.73296 27.6813C7.74284 27.6981 7.75733 27.7119 7.7748 27.7211C7.79226 27.7303 7.81201 27.7345 7.83181 27.7333C8.13429 27.7333 8.42439 27.8508 8.63828 28.0599C8.85217 28.2691 8.97233 28.5527 8.97233 28.8484C8.97233 29.1442 8.85217 29.4278 8.63828 29.637C8.42439 29.8461 8.13429 29.9636 7.83181 29.9636V29.9115Z" fill="black" fill-opacity="0.2"/>
<path d="M37.0982 35.3089H14.0899C13.0701 35.3069 12.0927 34.91 11.3716 34.205C10.6505 33.4999 10.2445 32.5442 10.2425 31.5472V22.1279C10.2445 21.1309 10.6505 20.1752 11.3716 19.4702C12.0927 18.7651 13.0701 18.3682 14.0899 18.3662H37.0982C38.1179 18.3682 39.0954 18.7651 39.8165 19.4702C40.5375 20.1752 40.9435 21.1309 40.9455 22.1279V31.5472C40.9435 32.5442 40.5375 33.4999 39.8165 34.205C39.0954 34.91 38.1179 35.3069 37.0982 35.3089ZM14.0899 20.5965C13.6745 20.5965 13.2761 20.7578 12.9823 21.045C12.6886 21.3322 12.5236 21.7218 12.5236 22.1279V31.5472C12.5256 31.9527 12.6912 32.3411 12.9845 32.6279C13.2779 32.9147 13.6751 33.0767 14.0899 33.0786H37.0982C37.3039 33.0786 37.5075 33.039 37.6976 32.9621C37.8876 32.8851 38.0603 32.7723 38.2057 32.6301C38.3512 32.4879 38.4665 32.319 38.5453 32.1332C38.624 31.9474 38.6645 31.7483 38.6645 31.5472V22.1279C38.6645 21.7218 38.4995 21.3322 38.2057 21.045C37.912 20.7578 37.5136 20.5965 37.0982 20.5965H14.0899Z" fill="#335F32"/>
<path d="M37.0982 35.3089H14.0899C13.0701 35.3069 12.0927 34.91 11.3716 34.205C10.6505 33.4999 10.2445 32.5442 10.2425 31.5472V22.1279C10.2445 21.1309 10.6505 20.1752 11.3716 19.4702C12.0927 18.7651 13.0701 18.3682 14.0899 18.3662H37.0982C38.1179 18.3682 39.0954 18.7651 39.8165 19.4702C40.5375 20.1752 40.9435 21.1309 40.9455 22.1279V31.5472C40.9435 32.5442 40.5375 33.4999 39.8165 34.205C39.0954 34.91 38.1179 35.3069 37.0982 35.3089ZM14.0899 20.5965C13.6745 20.5965 13.2761 20.7578 12.9823 21.045C12.6886 21.3322 12.5236 21.7218 12.5236 22.1279V31.5472C12.5256 31.9527 12.6912 32.3411 12.9845 32.6279C13.2779 32.9147 13.6751 33.0767 14.0899 33.0786H37.0982C37.3039 33.0786 37.5075 33.039 37.6976 32.9621C37.8876 32.8851 38.0603 32.7723 38.2057 32.6301C38.3512 32.4879 38.4665 32.319 38.5453 32.1332C38.624 31.9474 38.6645 31.7483 38.6645 31.5472V22.1279C38.6645 21.7218 38.4995 21.3322 38.2057 21.045C37.912 20.7578 37.5136 20.5965 37.0982 20.5965H14.0899Z" fill="black" fill-opacity="0.2"/>
<path d="M19.641 28.1496C19.7246 28.3793 19.7583 28.6236 19.74 28.8668C19.7217 29.11 19.6517 29.3468 19.5345 29.5621C19.3034 29.9066 18.9815 30.1837 18.6028 30.3642C18.2241 30.5448 17.8026 30.6221 17.3827 30.588C16.7127 30.5783 16.0522 30.4314 15.4438 30.1569C15.2726 30.0686 15.1422 29.9199 15.0793 29.7409C15.0163 29.562 15.0256 29.3663 15.1051 29.1938C15.1846 29.0212 15.3284 28.8848 15.5072 28.8124C15.686 28.7399 15.8863 28.7369 16.0673 28.8038C17.1394 29.2722 18.0594 29.0937 18.2039 28.841C18.2209 28.8049 18.2298 28.7655 18.2298 28.7258C18.2298 28.686 18.2209 28.6466 18.2039 28.6105C17.9447 28.1006 17.4958 27.707 16.9493 27.5102C16.4865 27.3312 16.065 27.0634 15.7098 26.7224C15.3545 26.3815 15.0728 25.9745 14.8812 25.5253C14.7974 25.2943 14.7635 25.0488 14.7819 24.8044C14.8002 24.56 14.8703 24.3219 14.9876 24.1054C15.6111 23.0125 17.3675 22.7598 19.0783 23.518C19.2616 23.5992 19.4044 23.748 19.4757 23.9319C19.547 24.1159 19.5408 24.3199 19.4585 24.4994C19.3755 24.6785 19.2233 24.8182 19.0352 24.8879C18.8471 24.9576 18.6384 24.9515 18.4548 24.8711C17.3827 24.3953 16.4627 24.5737 16.3182 24.8265C16.3012 24.8626 16.2924 24.9019 16.2924 24.9417C16.2924 24.9815 16.3012 25.0208 16.3182 25.0569C16.4404 25.318 16.6141 25.5529 16.8294 25.7481C17.0447 25.9433 17.2973 26.095 17.5728 26.1944C18.4975 26.5561 19.2401 27.2581 19.641 28.1496ZM30.1338 29.1012H27.982V23.8303C27.982 23.6331 27.9019 23.444 27.7593 23.3046C27.6167 23.1652 27.4233 23.0869 27.2217 23.0869C27.02 23.0869 26.8266 23.1652 26.684 23.3046C26.5414 23.444 26.4613 23.6331 26.4613 23.8303V29.8446C26.4613 30.0418 26.5414 30.2309 26.684 30.3703C26.8266 30.5097 27.02 30.588 27.2217 30.588H30.1338C30.3355 30.588 30.5289 30.5097 30.6715 30.3703C30.8141 30.2309 30.8942 30.0418 30.8942 29.8446C30.8942 29.6474 30.8141 29.4583 30.6715 29.3189C30.5289 29.1795 30.3355 29.1012 30.1338 29.1012ZM35.6616 29.1012H33.5098V23.8303C33.5098 23.6331 33.4297 23.444 33.2871 23.3046C33.1445 23.1652 32.9511 23.0869 32.7494 23.0869C32.5478 23.0869 32.3544 23.1652 32.2118 23.3046C32.0692 23.444 31.9891 23.6331 31.9891 23.8303V29.8446C31.9891 30.0418 32.0692 30.2309 32.2118 30.3703C32.3544 30.5097 32.5478 30.588 32.7494 30.588H35.6844C35.8861 30.588 36.0795 30.5097 36.2221 30.3703C36.3647 30.2309 36.4448 30.0418 36.4448 29.8446C36.4448 29.6474 36.3647 29.4583 36.2221 29.3189C36.0795 29.1795 35.8861 29.1012 35.6844 29.1012H35.6616ZM24.6137 29.1012H22.4619V27.6143H24.4008C24.6024 27.6143 24.7958 27.536 24.9384 27.3966C25.081 27.2572 25.1611 27.0681 25.1611 26.8709C25.1611 26.6737 25.081 26.4846 24.9384 26.3452C24.7958 26.2058 24.6024 26.1275 24.4008 26.1275H22.4619V24.6406H24.4008C24.6024 24.6406 24.7958 24.5623 24.9384 24.4229C25.081 24.2835 25.1611 24.0944 25.1611 23.8972C25.1611 23.7 25.081 23.5109 24.9384 23.3715C24.7958 23.2321 24.6024 23.1538 24.4008 23.1538H21.7015C21.4999 23.1538 21.3065 23.2321 21.1639 23.3715C21.0213 23.5109 20.9412 23.7 20.9412 23.8972V29.9115C20.9412 30.1087 21.0213 30.2978 21.1639 30.4372C21.3065 30.5766 21.4999 30.6549 21.7015 30.6549H24.6137C24.8153 30.6549 25.0087 30.5766 25.1513 30.4372C25.2939 30.2978 25.374 30.1087 25.374 29.9115C25.374 29.7143 25.2939 29.5253 25.1513 29.3858C25.0087 29.2464 24.8153 29.1681 24.6137 29.1681V29.1012Z" fill="#335F32"/>
<path d="M19.641 28.1496C19.7246 28.3793 19.7583 28.6236 19.74 28.8668C19.7217 29.11 19.6517 29.3468 19.5345 29.5621C19.3034 29.9066 18.9815 30.1837 18.6028 30.3642C18.2241 30.5448 17.8026 30.6221 17.3827 30.588C16.7127 30.5783 16.0522 30.4314 15.4438 30.1569C15.2726 30.0686 15.1422 29.9199 15.0793 29.7409C15.0163 29.562 15.0256 29.3663 15.1051 29.1938C15.1846 29.0212 15.3284 28.8848 15.5072 28.8124C15.686 28.7399 15.8863 28.7369 16.0673 28.8038C17.1394 29.2722 18.0594 29.0937 18.2039 28.841C18.2209 28.8049 18.2298 28.7655 18.2298 28.7258C18.2298 28.686 18.2209 28.6466 18.2039 28.6105C17.9447 28.1006 17.4958 27.707 16.9493 27.5102C16.4865 27.3312 16.065 27.0634 15.7098 26.7224C15.3545 26.3815 15.0728 25.9745 14.8812 25.5253C14.7974 25.2943 14.7635 25.0488 14.7819 24.8044C14.8002 24.56 14.8703 24.3219 14.9876 24.1054C15.6111 23.0125 17.3675 22.7598 19.0783 23.518C19.2616 23.5992 19.4044 23.748 19.4757 23.9319C19.547 24.1159 19.5408 24.3199 19.4585 24.4994C19.3755 24.6785 19.2233 24.8182 19.0352 24.8879C18.8471 24.9576 18.6384 24.9515 18.4548 24.8711C17.3827 24.3953 16.4627 24.5737 16.3182 24.8265C16.3012 24.8626 16.2924 24.9019 16.2924 24.9417C16.2924 24.9815 16.3012 25.0208 16.3182 25.0569C16.4404 25.318 16.6141 25.5529 16.8294 25.7481C17.0447 25.9433 17.2973 26.095 17.5728 26.1944C18.4975 26.5561 19.2401 27.2581 19.641 28.1496ZM30.1338 29.1012H27.982V23.8303C27.982 23.6331 27.9019 23.444 27.7593 23.3046C27.6167 23.1652 27.4233 23.0869 27.2217 23.0869C27.02 23.0869 26.8266 23.1652 26.684 23.3046C26.5414 23.444 26.4613 23.6331 26.4613 23.8303V29.8446C26.4613 30.0418 26.5414 30.2309 26.684 30.3703C26.8266 30.5097 27.02 30.588 27.2217 30.588H30.1338C30.3355 30.588 30.5289 30.5097 30.6715 30.3703C30.8141 30.2309 30.8942 30.0418 30.8942 29.8446C30.8942 29.6474 30.8141 29.4583 30.6715 29.3189C30.5289 29.1795 30.3355 29.1012 30.1338 29.1012ZM35.6616 29.1012H33.5098V23.8303C33.5098 23.6331 33.4297 23.444 33.2871 23.3046C33.1445 23.1652 32.9511 23.0869 32.7494 23.0869C32.5478 23.0869 32.3544 23.1652 32.2118 23.3046C32.0692 23.444 31.9891 23.6331 31.9891 23.8303V29.8446C31.9891 30.0418 32.0692 30.2309 32.2118 30.3703C32.3544 30.5097 32.5478 30.588 32.7494 30.588H35.6844C35.8861 30.588 36.0795 30.5097 36.2221 30.3703C36.3647 30.2309 36.4448 30.0418 36.4448 29.8446C36.4448 29.6474 36.3647 29.4583 36.2221 29.3189C36.0795 29.1795 35.8861 29.1012 35.6844 29.1012H35.6616ZM24.6137 29.1012H22.4619V27.6143H24.4008C24.6024 27.6143 24.7958 27.536 24.9384 27.3966C25.081 27.2572 25.1611 27.0681 25.1611 26.8709C25.1611 26.6737 25.081 26.4846 24.9384 26.3452C24.7958 26.2058 24.6024 26.1275 24.4008 26.1275H22.4619V24.6406H24.4008C24.6024 24.6406 24.7958 24.5623 24.9384 24.4229C25.081 24.2835 25.1611 24.0944 25.1611 23.8972C25.1611 23.7 25.081 23.5109 24.9384 23.3715C24.7958 23.2321 24.6024 23.1538 24.4008 23.1538H21.7015C21.4999 23.1538 21.3065 23.2321 21.1639 23.3715C21.0213 23.5109 20.9412 23.7 20.9412 23.8972V29.9115C20.9412 30.1087 21.0213 30.2978 21.1639 30.4372C21.3065 30.5766 21.4999 30.6549 21.7015 30.6549H24.6137C24.8153 30.6549 25.0087 30.5766 25.1513 30.4372C25.2939 30.2978 25.374 30.1087 25.374 29.9115C25.374 29.7143 25.2939 29.5253 25.1513 29.3858C25.0087 29.2464 24.8153 29.1681 24.6137 29.1681V29.1012Z" fill="black" fill-opacity="0.2"/>
</svg>
