<svg width="37" height="25" viewBox="0 0 37 25" fill="none" xmlns="http://www.w3.org/2000/svg">
<path d="M34.3571 11.518V4.61133C34.3571 3.55046 33.9395 2.53305 33.196 1.7829C32.4526 1.03276 31.4443 0.611328 30.3929 0.611328H6.60714C5.55575 0.611328 4.54742 1.03276 3.80397 1.7829C3.06052 2.53305 2.64286 3.55046 2.64286 4.61133V11.518C1.87174 11.7931 1.20382 12.3021 0.730669 12.9752C0.257518 13.6484 0.00229864 14.4527 0 15.278V20.6113C0 21.6722 0.417665 22.6896 1.16111 23.4398C1.90456 24.1899 2.91289 24.6113 3.96429 24.6113H33.0357C34.0871 24.6113 35.0954 24.1899 35.8389 23.4398C36.5823 22.6896 37 21.6722 37 20.6113V15.278C36.9977 14.4527 36.7425 13.6484 36.2693 12.9752C35.7962 12.3021 35.1283 11.7931 34.3571 11.518ZM5.28571 4.61133C5.28571 4.25771 5.42494 3.91857 5.67275 3.66852C5.92057 3.41847 6.25668 3.27799 6.60714 3.27799H30.3929C30.7433 3.27799 31.0794 3.41847 31.3272 3.66852C31.5751 3.91857 31.7143 4.25771 31.7143 4.61133V11.278H30.3929V9.94466C30.3929 8.8838 29.9752 7.86638 29.2317 7.11623C28.4883 6.36609 27.48 5.94466 26.4286 5.94466H23.7857C22.7343 5.94466 21.726 6.36609 20.9825 7.11623C20.2391 7.86638 19.8214 8.8838 19.8214 9.94466V11.278H17.1786V9.94466C17.1786 8.8838 16.7609 7.86638 16.0175 7.11623C15.274 6.36609 14.2657 5.94466 13.2143 5.94466H10.5714C9.52003 5.94466 8.5117 6.36609 7.76826 7.11623C7.02481 7.86638 6.60714 8.8838 6.60714 9.94466V11.278H5.28571V4.61133ZM27.75 11.278H22.4643V9.94466C22.4643 9.59104 22.6035 9.2519 22.8513 9.00185C23.0991 8.7518 23.4352 8.61133 23.7857 8.61133H26.4286C26.779 8.61133 27.1151 8.7518 27.363 9.00185C27.6108 9.2519 27.75 9.59104 27.75 9.94466V11.278ZM14.5357 11.278H9.25V9.94466C9.25 9.59104 9.38922 9.2519 9.63704 9.00185C9.88485 8.7518 10.221 8.61133 10.5714 8.61133H13.2143C13.5647 8.61133 13.9009 8.7518 14.1487 9.00185C14.3965 9.2519 14.5357 9.59104 14.5357 9.94466V11.278ZM34.3571 20.6113C34.3571 20.965 34.2179 21.3041 33.9701 21.5541C33.7223 21.8042 33.3862 21.9447 33.0357 21.9447H3.96429C3.61382 21.9447 3.27771 21.8042 3.02989 21.5541C2.78208 21.3041 2.64286 20.965 2.64286 20.6113V15.278C2.64286 14.9244 2.78208 14.5852 3.02989 14.3352C3.27771 14.0851 3.61382 13.9447 3.96429 13.9447H33.0357C33.3862 13.9447 33.7223 14.0851 33.9701 14.3352C34.2179 14.5852 34.3571 14.9244 34.3571 15.278V20.6113Z" fill="#335F32"/>
<path d="M34.3571 11.518V4.61133C34.3571 3.55046 33.9395 2.53305 33.196 1.7829C32.4526 1.03276 31.4443 0.611328 30.3929 0.611328H6.60714C5.55575 0.611328 4.54742 1.03276 3.80397 1.7829C3.06052 2.53305 2.64286 3.55046 2.64286 4.61133V11.518C1.87174 11.7931 1.20382 12.3021 0.730669 12.9752C0.257518 13.6484 0.00229864 14.4527 0 15.278V20.6113C0 21.6722 0.417665 22.6896 1.16111 23.4398C1.90456 24.1899 2.91289 24.6113 3.96429 24.6113H33.0357C34.0871 24.6113 35.0954 24.1899 35.8389 23.4398C36.5823 22.6896 37 21.6722 37 20.6113V15.278C36.9977 14.4527 36.7425 13.6484 36.2693 12.9752C35.7962 12.3021 35.1283 11.7931 34.3571 11.518ZM5.28571 4.61133C5.28571 4.25771 5.42494 3.91857 5.67275 3.66852C5.92057 3.41847 6.25668 3.27799 6.60714 3.27799H30.3929C30.7433 3.27799 31.0794 3.41847 31.3272 3.66852C31.5751 3.91857 31.7143 4.25771 31.7143 4.61133V11.278H30.3929V9.94466C30.3929 8.8838 29.9752 7.86638 29.2317 7.11623C28.4883 6.36609 27.48 5.94466 26.4286 5.94466H23.7857C22.7343 5.94466 21.726 6.36609 20.9825 7.11623C20.2391 7.86638 19.8214 8.8838 19.8214 9.94466V11.278H17.1786V9.94466C17.1786 8.8838 16.7609 7.86638 16.0175 7.11623C15.274 6.36609 14.2657 5.94466 13.2143 5.94466H10.5714C9.52003 5.94466 8.5117 6.36609 7.76826 7.11623C7.02481 7.86638 6.60714 8.8838 6.60714 9.94466V11.278H5.28571V4.61133ZM27.75 11.278H22.4643V9.94466C22.4643 9.59104 22.6035 9.2519 22.8513 9.00185C23.0991 8.7518 23.4352 8.61133 23.7857 8.61133H26.4286C26.779 8.61133 27.1151 8.7518 27.363 9.00185C27.6108 9.2519 27.75 9.59104 27.75 9.94466V11.278ZM14.5357 11.278H9.25V9.94466C9.25 9.59104 9.38922 9.2519 9.63704 9.00185C9.88485 8.7518 10.221 8.61133 10.5714 8.61133H13.2143C13.5647 8.61133 13.9009 8.7518 14.1487 9.00185C14.3965 9.2519 14.5357 9.59104 14.5357 9.94466V11.278ZM34.3571 20.6113C34.3571 20.965 34.2179 21.3041 33.9701 21.5541C33.7223 21.8042 33.3862 21.9447 33.0357 21.9447H3.96429C3.61382 21.9447 3.27771 21.8042 3.02989 21.5541C2.78208 21.3041 2.64286 20.965 2.64286 20.6113V15.278C2.64286 14.9244 2.78208 14.5852 3.02989 14.3352C3.27771 14.0851 3.61382 13.9447 3.96429 13.9447H33.0357C33.3862 13.9447 33.7223 14.0851 33.9701 14.3352C34.2179 14.5852 34.3571 14.9244 34.3571 15.278V20.6113Z" fill="black" fill-opacity="0.2"/>
</svg>
