<svg width="37" height="27" viewBox="0 0 37 27" fill="none" xmlns="http://www.w3.org/2000/svg">
<path d="M35.6786 24.0211H31.7143V16.9101C33.5246 15.7661 34.3571 12.2561 34.3571 8.96715C34.3571 4.95017 33.115 0.621179 30.3929 0.621179C27.6707 0.621179 26.4286 4.95017 26.4286 8.96715C26.4286 12.2691 27.2611 15.7661 29.0714 16.9101V24.0211H23.7857V9.72115C23.7857 9.53338 23.7444 9.34783 23.6645 9.17728C23.5847 9.00672 23.4683 8.8552 23.3232 8.73315L14.0732 0.933178C13.8339 0.73177 13.5293 0.621094 13.2143 0.621094C12.8993 0.621094 12.5947 0.73177 12.3554 0.933178L3.10536 8.73315C2.96031 8.8552 2.84386 9.00672 2.76402 9.17728C2.68418 9.34783 2.64284 9.53338 2.64286 9.72115V24.0211H1.32143C0.970964 24.0211 0.634853 24.1581 0.387037 24.4019C0.139221 24.6457 0 24.9763 0 25.3211C0 25.6659 0.139221 25.9965 0.387037 26.2403C0.634853 26.4841 0.970964 26.6211 1.32143 26.6211H35.6786C36.029 26.6211 36.3651 26.4841 36.613 26.2403C36.8608 25.9965 37 25.6659 37 25.3211C37 24.9763 36.8608 24.6457 36.613 24.4019C36.3651 24.1581 36.029 24.0211 35.6786 24.0211ZM30.3929 3.22117C30.8554 3.67617 31.7143 5.60016 31.7143 8.90215C31.7143 12.2041 30.8554 14.1021 30.3929 14.5831C29.9304 14.1281 29.0714 12.2041 29.0714 8.90215C29.0714 5.60016 29.9304 3.72817 30.3929 3.22117ZM11.8929 24.0211V17.5211H14.5357V24.0211H11.8929ZM17.1786 24.0211V16.2211C17.1786 15.8763 17.0393 15.5457 16.7915 15.3019C16.5437 15.0581 16.2076 14.9211 15.8571 14.9211H10.5714C10.221 14.9211 9.88485 15.0581 9.63704 15.3019C9.38922 15.5457 9.25 15.8763 9.25 16.2211V24.0211H5.28571V10.3191L13.2143 3.63717L21.1429 10.3191V24.0211H17.1786Z" fill="#335F32"/>
<path d="M35.6786 24.0211H31.7143V16.9101C33.5246 15.7661 34.3571 12.2561 34.3571 8.96715C34.3571 4.95017 33.115 0.621179 30.3929 0.621179C27.6707 0.621179 26.4286 4.95017 26.4286 8.96715C26.4286 12.2691 27.2611 15.7661 29.0714 16.9101V24.0211H23.7857V9.72115C23.7857 9.53338 23.7444 9.34783 23.6645 9.17728C23.5847 9.00672 23.4683 8.8552 23.3232 8.73315L14.0732 0.933178C13.8339 0.73177 13.5293 0.621094 13.2143 0.621094C12.8993 0.621094 12.5947 0.73177 12.3554 0.933178L3.10536 8.73315C2.96031 8.8552 2.84386 9.00672 2.76402 9.17728C2.68418 9.34783 2.64284 9.53338 2.64286 9.72115V24.0211H1.32143C0.970964 24.0211 0.634853 24.1581 0.387037 24.4019C0.139221 24.6457 0 24.9763 0 25.3211C0 25.6659 0.139221 25.9965 0.387037 26.2403C0.634853 26.4841 0.970964 26.6211 1.32143 26.6211H35.6786C36.029 26.6211 36.3651 26.4841 36.613 26.2403C36.8608 25.9965 37 25.6659 37 25.3211C37 24.9763 36.8608 24.6457 36.613 24.4019C36.3651 24.1581 36.029 24.0211 35.6786 24.0211ZM30.3929 3.22117C30.8554 3.67617 31.7143 5.60016 31.7143 8.90215C31.7143 12.2041 30.8554 14.1021 30.3929 14.5831C29.9304 14.1281 29.0714 12.2041 29.0714 8.90215C29.0714 5.60016 29.9304 3.72817 30.3929 3.22117ZM11.8929 24.0211V17.5211H14.5357V24.0211H11.8929ZM17.1786 24.0211V16.2211C17.1786 15.8763 17.0393 15.5457 16.7915 15.3019C16.5437 15.0581 16.2076 14.9211 15.8571 14.9211H10.5714C10.221 14.9211 9.88485 15.0581 9.63704 15.3019C9.38922 15.5457 9.25 15.8763 9.25 16.2211V24.0211H5.28571V10.3191L13.2143 3.63717L21.1429 10.3191V24.0211H17.1786Z" fill="black" fill-opacity="0.2"/>
</svg>
