<svg width="32" height="33" viewBox="0 0 32 33" fill="none" xmlns="http://www.w3.org/2000/svg">
<path d="M25.5405 0.188965H6.45945C4.74677 0.191179 3.10486 0.918509 1.8939 2.21139C0.682942 3.50428 0.00183452 5.25713 0 7.08541V17.2691C0.00186864 19.0973 0.68299 20.8502 1.89394 22.143C3.1049 23.4359 4.74679 24.1632 6.45945 24.1654H14.5091V27.5888L6.7838 29.0292C6.59091 29.0652 6.40655 29.1413 6.24123 29.2534C6.07592 29.3654 5.9329 29.5111 5.82033 29.6822C5.59299 30.0276 5.50351 30.4553 5.57157 30.8711C5.63963 31.287 5.85965 31.657 6.18324 31.8997C6.50683 32.1423 6.90748 32.2379 7.29704 32.1652L15.9993 30.5417L24.6526 32.1652C24.7385 32.1804 24.8253 32.1883 24.9124 32.1887C25.2853 32.1884 25.6446 32.0389 25.9194 31.7697C26.1941 31.5005 26.3644 31.1311 26.3966 30.7345C26.4288 30.3378 26.3207 29.9427 26.0934 29.627C25.8661 29.3114 25.5363 29.0981 25.169 29.0292L17.4909 27.5897V24.1654H25.5405C27.2531 24.1631 28.895 23.4357 30.1059 22.1428C31.3168 20.85 31.998 19.0972 32 17.269V7.08541C31.998 5.25717 31.3169 3.5044 30.1059 2.21154C28.895 0.918693 27.2531 0.19132 25.5405 0.188965ZM29.0182 17.269C29.0173 18.2534 28.6507 19.1972 27.9987 19.8934C27.3467 20.5895 26.4627 20.9811 25.5405 20.9823H6.45945C5.53731 20.9811 4.65328 20.5895 4.00131 19.8933C3.34934 19.1972 2.98268 18.2534 2.98178 17.269V7.08541C2.98267 6.10102 3.34932 5.15721 4.00129 4.46105C4.65326 3.76489 5.5373 3.37324 6.45945 3.37204H25.5405C26.4627 3.37324 27.3467 3.76489 27.9987 4.46105C28.6506 5.15721 29.0173 6.10102 29.0182 7.08541L29.0182 17.269Z" fill="#335F32"/>
<path d="M25.5405 0.188965H6.45945C4.74677 0.191179 3.10486 0.918509 1.8939 2.21139C0.682942 3.50428 0.00183452 5.25713 0 7.08541V17.2691C0.00186864 19.0973 0.68299 20.8502 1.89394 22.143C3.1049 23.4359 4.74679 24.1632 6.45945 24.1654H14.5091V27.5888L6.7838 29.0292C6.59091 29.0652 6.40655 29.1413 6.24123 29.2534C6.07592 29.3654 5.9329 29.5111 5.82033 29.6822C5.59299 30.0276 5.50351 30.4553 5.57157 30.8711C5.63963 31.287 5.85965 31.657 6.18324 31.8997C6.50683 32.1423 6.90748 32.2379 7.29704 32.1652L15.9993 30.5417L24.6526 32.1652C24.7385 32.1804 24.8253 32.1883 24.9124 32.1887C25.2853 32.1884 25.6446 32.0389 25.9194 31.7697C26.1941 31.5005 26.3644 31.1311 26.3966 30.7345C26.4288 30.3378 26.3207 29.9427 26.0934 29.627C25.8661 29.3114 25.5363 29.0981 25.169 29.0292L17.4909 27.5897V24.1654H25.5405C27.2531 24.1631 28.895 23.4357 30.1059 22.1428C31.3168 20.85 31.998 19.0972 32 17.269V7.08541C31.998 5.25717 31.3169 3.5044 30.1059 2.21154C28.895 0.918693 27.2531 0.19132 25.5405 0.188965ZM29.0182 17.269C29.0173 18.2534 28.6507 19.1972 27.9987 19.8934C27.3467 20.5895 26.4627 20.9811 25.5405 20.9823H6.45945C5.53731 20.9811 4.65328 20.5895 4.00131 19.8933C3.34934 19.1972 2.98268 18.2534 2.98178 17.269V7.08541C2.98267 6.10102 3.34932 5.15721 4.00129 4.46105C4.65326 3.76489 5.5373 3.37324 6.45945 3.37204H25.5405C26.4627 3.37324 27.3467 3.76489 27.9987 4.46105C28.6506 5.15721 29.0173 6.10102 29.0182 7.08541L29.0182 17.269Z" fill="black" fill-opacity="0.2"/>
</svg>
