<svg width="18" height="18" viewBox="0 0 18 18" fill="none" xmlns="http://www.w3.org/2000/svg">
<path d="M13.8058 3.114C13.5922 3.114 13.3833 3.17734 13.2057 3.29601C13.0281 3.41468 12.8897 3.58336 12.808 3.7807C12.7262 3.97805 12.7048 4.1952 12.7465 4.4047C12.7882 4.6142 12.891 4.80663 13.0421 4.95768C13.1931 5.10872 13.3856 5.21158 13.5951 5.25325C13.8046 5.29492 14.0217 5.27353 14.2191 5.19179C14.4164 5.11005 14.5851 4.97162 14.7037 4.79402C14.8224 4.61641 14.8858 4.4076 14.8858 4.194C14.8858 3.90757 14.772 3.63286 14.5694 3.43032C14.3669 3.22779 14.0922 3.114 13.8058 3.114ZM17.9458 5.292C17.9283 4.54527 17.7884 3.80646 17.5318 3.105C17.3029 2.50482 16.9467 1.96135 16.4878 1.512C16.0421 1.05068 15.4974 0.696759 14.8948 0.477C14.1951 0.212545 13.4555 0.069489 12.7078 0.0539999C11.7538 -5.02914e-08 11.4478 0 8.99976 0C6.55176 0 6.24576 -5.02914e-08 5.29176 0.0539999C4.54399 0.069489 3.80436 0.212545 3.10476 0.477C2.50326 0.698984 1.959 1.0526 1.51176 1.512C1.05044 1.95766 0.696515 2.5024 0.476756 3.105C0.212301 3.80461 0.0692449 4.54424 0.0537558 5.292C-0.000244191 6.246 -0.000244141 6.552 -0.000244141 9C-0.000244141 11.448 -0.000244191 11.754 0.0537558 12.708C0.0692449 13.4558 0.212301 14.1954 0.476756 14.895C0.696515 15.4976 1.05044 16.0423 1.51176 16.488C1.959 16.9474 2.50326 17.301 3.10476 17.523C3.80436 17.7875 4.54399 17.9305 5.29176 17.946C6.24576 18 6.55176 18 8.99976 18C11.4478 18 11.7538 18 12.7078 17.946C13.4555 17.9305 14.1951 17.7875 14.8948 17.523C15.4974 17.3032 16.0421 16.9493 16.4878 16.488C16.9488 16.0403 17.3053 15.4964 17.5318 14.895C17.7884 14.1935 17.9283 13.4547 17.9458 12.708C17.9458 11.754 17.9998 11.448 17.9998 9C17.9998 6.552 17.9998 6.246 17.9458 5.292ZM16.3258 12.6C16.3192 13.1713 16.2157 13.7373 16.0198 14.274C15.8761 14.6657 15.6452 15.0196 15.3448 15.309C15.0528 15.6065 14.6997 15.8368 14.3098 15.984C13.7731 16.18 13.2071 16.2834 12.6358 16.29C11.7358 16.335 11.4028 16.344 9.03576 16.344C6.66876 16.344 6.33576 16.344 5.43576 16.29C4.84256 16.3011 4.25189 16.2098 3.68976 16.02C3.31696 15.8653 2.97998 15.6355 2.69976 15.345C2.40104 15.0559 2.17311 14.7017 2.03376 14.31C1.81403 13.7656 1.69215 13.1867 1.67376 12.6C1.67376 11.7 1.61976 11.367 1.61976 9C1.61976 6.633 1.61976 6.3 1.67376 5.4C1.67779 4.81595 1.78441 4.23715 1.98876 3.69C2.1472 3.31012 2.39039 2.97149 2.69976 2.7C2.97319 2.39055 3.31111 2.14479 3.68976 1.98C4.23835 1.78204 4.81655 1.67857 5.39976 1.674C6.29976 1.674 6.63276 1.62 8.99976 1.62C11.3668 1.62 11.6998 1.62 12.5998 1.674C13.171 1.68055 13.7371 1.78402 14.2738 1.98C14.6827 2.13179 15.0498 2.37856 15.3448 2.7C15.6397 2.97646 15.8701 3.31446 16.0198 3.69C16.2198 4.23804 16.3233 4.8166 16.3258 5.4C16.3708 6.3 16.3798 6.633 16.3798 9C16.3798 11.367 16.3708 11.7 16.3258 12.6ZM8.99976 4.383C8.08698 4.38478 7.19522 4.65707 6.43714 5.16548C5.67907 5.67388 5.0887 6.39558 4.74063 7.23938C4.39256 8.08318 4.30241 9.01122 4.48157 9.90624C4.66073 10.8013 5.10117 11.6231 5.74722 12.2679C6.39328 12.9127 7.21597 13.3515 8.11133 13.5289C9.00669 13.7064 9.93456 13.6144 10.7777 13.2647C11.6208 12.915 12.3413 12.3232 12.8483 11.5641C13.3552 10.8051 13.6258 9.91277 13.6258 9C13.6269 8.39259 13.508 7.79095 13.2759 7.22966C13.0437 6.66838 12.7029 6.15853 12.2729 5.72945C11.843 5.30036 11.3325 4.96051 10.7708 4.72944C10.209 4.49836 9.60716 4.38063 8.99976 4.383ZM8.99976 11.997C8.40701 11.997 7.82757 11.8212 7.33471 11.4919C6.84186 11.1626 6.45772 10.6945 6.23089 10.1469C6.00405 9.59927 5.9447 8.99668 6.06034 8.41531C6.17598 7.83395 6.46142 7.29994 6.88056 6.8808C7.29969 6.46166 7.83371 6.17623 8.41507 6.06059C8.99643 5.94495 9.59903 6.0043 10.1467 6.23113C10.6943 6.45797 11.1624 6.8421 11.4917 7.33496C11.821 7.82781 11.9968 8.40725 11.9968 9C11.9968 9.39357 11.9192 9.78329 11.7686 10.1469C11.618 10.5105 11.3973 10.8409 11.119 11.1192C10.8407 11.3975 10.5103 11.6183 10.1467 11.7689C9.78304 11.9195 9.39333 11.997 8.99976 11.997Z" fill="#335F32"/>
<path d="M13.8058 3.114C13.5922 3.114 13.3833 3.17734 13.2057 3.29601C13.0281 3.41468 12.8897 3.58336 12.808 3.7807C12.7262 3.97805 12.7048 4.1952 12.7465 4.4047C12.7882 4.6142 12.891 4.80663 13.0421 4.95768C13.1931 5.10872 13.3856 5.21158 13.5951 5.25325C13.8046 5.29492 14.0217 5.27353 14.2191 5.19179C14.4164 5.11005 14.5851 4.97162 14.7037 4.79402C14.8224 4.61641 14.8858 4.4076 14.8858 4.194C14.8858 3.90757 14.772 3.63286 14.5694 3.43032C14.3669 3.22779 14.0922 3.114 13.8058 3.114ZM17.9458 5.292C17.9283 4.54527 17.7884 3.80646 17.5318 3.105C17.3029 2.50482 16.9467 1.96135 16.4878 1.512C16.0421 1.05068 15.4974 0.696759 14.8948 0.477C14.1951 0.212545 13.4555 0.069489 12.7078 0.0539999C11.7538 -5.02914e-08 11.4478 0 8.99976 0C6.55176 0 6.24576 -5.02914e-08 5.29176 0.0539999C4.54399 0.069489 3.80436 0.212545 3.10476 0.477C2.50326 0.698984 1.959 1.0526 1.51176 1.512C1.05044 1.95766 0.696515 2.5024 0.476756 3.105C0.212301 3.80461 0.0692449 4.54424 0.0537558 5.292C-0.000244191 6.246 -0.000244141 6.552 -0.000244141 9C-0.000244141 11.448 -0.000244191 11.754 0.0537558 12.708C0.0692449 13.4558 0.212301 14.1954 0.476756 14.895C0.696515 15.4976 1.05044 16.0423 1.51176 16.488C1.959 16.9474 2.50326 17.301 3.10476 17.523C3.80436 17.7875 4.54399 17.9305 5.29176 17.946C6.24576 18 6.55176 18 8.99976 18C11.4478 18 11.7538 18 12.7078 17.946C13.4555 17.9305 14.1951 17.7875 14.8948 17.523C15.4974 17.3032 16.0421 16.9493 16.4878 16.488C16.9488 16.0403 17.3053 15.4964 17.5318 14.895C17.7884 14.1935 17.9283 13.4547 17.9458 12.708C17.9458 11.754 17.9998 11.448 17.9998 9C17.9998 6.552 17.9998 6.246 17.9458 5.292ZM16.3258 12.6C16.3192 13.1713 16.2157 13.7373 16.0198 14.274C15.8761 14.6657 15.6452 15.0196 15.3448 15.309C15.0528 15.6065 14.6997 15.8368 14.3098 15.984C13.7731 16.18 13.2071 16.2834 12.6358 16.29C11.7358 16.335 11.4028 16.344 9.03576 16.344C6.66876 16.344 6.33576 16.344 5.43576 16.29C4.84256 16.3011 4.25189 16.2098 3.68976 16.02C3.31696 15.8653 2.97998 15.6355 2.69976 15.345C2.40104 15.0559 2.17311 14.7017 2.03376 14.31C1.81403 13.7656 1.69215 13.1867 1.67376 12.6C1.67376 11.7 1.61976 11.367 1.61976 9C1.61976 6.633 1.61976 6.3 1.67376 5.4C1.67779 4.81595 1.78441 4.23715 1.98876 3.69C2.1472 3.31012 2.39039 2.97149 2.69976 2.7C2.97319 2.39055 3.31111 2.14479 3.68976 1.98C4.23835 1.78204 4.81655 1.67857 5.39976 1.674C6.29976 1.674 6.63276 1.62 8.99976 1.62C11.3668 1.62 11.6998 1.62 12.5998 1.674C13.171 1.68055 13.7371 1.78402 14.2738 1.98C14.6827 2.13179 15.0498 2.37856 15.3448 2.7C15.6397 2.97646 15.8701 3.31446 16.0198 3.69C16.2198 4.23804 16.3233 4.8166 16.3258 5.4C16.3708 6.3 16.3798 6.633 16.3798 9C16.3798 11.367 16.3708 11.7 16.3258 12.6ZM8.99976 4.383C8.08698 4.38478 7.19522 4.65707 6.43714 5.16548C5.67907 5.67388 5.0887 6.39558 4.74063 7.23938C4.39256 8.08318 4.30241 9.01122 4.48157 9.90624C4.66073 10.8013 5.10117 11.6231 5.74722 12.2679C6.39328 12.9127 7.21597 13.3515 8.11133 13.5289C9.00669 13.7064 9.93456 13.6144 10.7777 13.2647C11.6208 12.915 12.3413 12.3232 12.8483 11.5641C13.3552 10.8051 13.6258 9.91277 13.6258 9C13.6269 8.39259 13.508 7.79095 13.2759 7.22966C13.0437 6.66838 12.7029 6.15853 12.2729 5.72945C11.843 5.30036 11.3325 4.96051 10.7708 4.72944C10.209 4.49836 9.60716 4.38063 8.99976 4.383ZM8.99976 11.997C8.40701 11.997 7.82757 11.8212 7.33471 11.4919C6.84186 11.1626 6.45772 10.6945 6.23089 10.1469C6.00405 9.59927 5.9447 8.99668 6.06034 8.41531C6.17598 7.83395 6.46142 7.29994 6.88056 6.8808C7.29969 6.46166 7.83371 6.17623 8.41507 6.06059C8.99643 5.94495 9.59903 6.0043 10.1467 6.23113C10.6943 6.45797 11.1624 6.8421 11.4917 7.33496C11.821 7.82781 11.9968 8.40725 11.9968 9C11.9968 9.39357 11.9192 9.78329 11.7686 10.1469C11.618 10.5105 11.3973 10.8409 11.119 11.1192C10.8407 11.3975 10.5103 11.6183 10.1467 11.7689C9.78304 11.9195 9.39333 11.997 8.99976 11.997Z" fill="black" fill-opacity="0.2"/>
</svg>
