<svg width="100" height="39" viewBox="0 0 100 39" fill="none" xmlns="http://www.w3.org/2000/svg">
<path d="M58.049 27.5281C57.0624 27.5385 56.1666 27.3079 55.3615 26.8364C54.5565 26.3649 53.9098 25.7317 53.4214 24.9368C52.9461 24.1284 52.7033 23.2243 52.6927 22.2243C52.6821 21.2244 52.9059 20.322 53.3641 19.5171C53.8355 18.6987 54.4754 18.052 55.2838 17.5767C56.092 17.0882 57.0027 16.8385 58.016 16.8278C58.536 16.8223 59.0367 16.8904 59.5182 17.032C59.9996 17.1602 60.4484 17.3555 60.8645 17.6178L60.8195 13.358L63.5545 12.8691L63.7072 27.3283L61.0074 27.3568L60.9983 26.4969C60.152 27.1725 59.1689 27.5162 58.049 27.5281ZM58.4643 25.1836C58.9709 25.1782 59.43 25.0934 59.8417 24.929C60.2665 24.7512 60.6304 24.494 60.9336 24.1574L60.8907 20.0977C60.5808 19.7942 60.2116 19.5581 59.7831 19.3893C59.3547 19.2205 58.8938 19.1387 58.4005 19.1439C57.8272 19.1499 57.3086 19.2888 56.8448 19.5603C56.3942 19.8185 56.038 20.1822 55.7763 20.6517C55.5144 21.1078 55.3865 21.6225 55.3925 22.1958C55.3986 22.7691 55.5373 23.281 55.8088 23.7315C56.0802 24.182 56.444 24.5382 56.9001 24.8001C57.3696 25.0618 57.891 25.1896 58.4643 25.1836ZM70.6655 27.3948C69.6789 27.4052 68.7831 27.1747 67.978 26.7032C67.173 26.2316 66.5263 25.5984 66.0379 24.8036C65.5626 23.9952 65.3197 23.091 65.3092 22.0911C65.2986 21.0912 65.5224 20.1887 65.9806 19.3839C66.452 18.5655 67.0919 17.9187 67.9002 17.4435C68.7085 16.9549 69.6192 16.7053 70.6325 16.6946C71.1525 16.6891 71.6532 16.7571 72.1347 16.8987C72.6161 17.027 73.0649 17.2223 73.481 17.4845L73.436 13.2248L76.171 12.7359L76.3237 27.1951L73.6238 27.2236L73.6148 26.3636C72.7685 27.0393 71.7854 27.383 70.6655 27.3948ZM71.0807 25.0503C71.5874 25.045 72.0465 24.9601 72.4581 24.7958C72.8829 24.6179 73.2469 24.3607 73.55 24.0242L73.5072 19.9644C73.1973 19.661 72.8281 19.4249 72.3996 19.2561C71.9712 19.0872 71.5103 19.0054 71.017 19.0106C70.4437 19.0167 69.9251 19.1555 69.4613 19.4271C69.0106 19.6852 68.6545 20.049 68.3927 20.5184C68.1309 20.9746 68.003 21.4893 68.009 22.0626C68.0151 22.6359 68.1538 23.1478 68.4253 23.5983C68.6967 24.0488 69.0605 24.4049 69.5166 24.6668C69.9861 24.9285 70.5074 25.0564 71.0807 25.0503ZM81.7825 27.3174C81.0358 27.3253 80.3745 27.199 79.7984 26.9384C79.2221 26.6644 78.7714 26.2892 78.4464 25.8126C78.1213 25.336 77.9555 24.7844 77.9489 24.1577C77.9383 23.1578 78.3035 22.3806 79.0443 21.826C79.7984 21.258 80.8354 20.9671 82.1553 20.9531C83.0619 20.9436 83.9167 21.0745 84.7196 21.3461L84.7115 20.5861C84.7052 19.9861 84.5138 19.5348 84.1372 19.2321C83.7607 18.9294 83.2124 18.7818 82.4925 18.7894C82.0525 18.7941 81.5799 18.8724 81.0749 19.0244C80.5696 19.1631 79.9852 19.3826 79.3217 19.683L78.3004 17.6737C79.1231 17.2916 79.9068 17.0033 80.6514 16.8088C81.4094 16.6141 82.1684 16.5127 82.9283 16.5047C84.3283 16.4899 85.4185 16.8184 86.1989 17.4902C86.9926 18.1486 87.3959 19.091 87.4089 20.3176L87.4803 27.0772L84.7804 27.1057L84.7726 26.3658C84.3493 26.6903 83.8918 26.9285 83.4001 27.0803C82.9083 27.2322 82.3691 27.3112 81.7825 27.3174ZM80.5481 24.0703C80.5523 24.4703 80.729 24.7884 81.0782 25.0247C81.4273 25.2477 81.8884 25.3562 82.4617 25.3501C82.915 25.3453 83.3345 25.2876 83.72 25.1768C84.1054 25.0528 84.4502 24.8758 84.7544 24.6459L84.7384 23.126C84.4037 22.9962 84.0559 22.8998 83.6953 22.837C83.3346 22.7741 82.9476 22.7449 82.5343 22.7492C81.9076 22.7558 81.4156 22.881 81.0582 23.1248C80.7139 23.3552 80.5439 23.6703 80.5481 24.0703ZM92.8756 27.2003C92.129 27.2081 91.4676 27.0818 90.8915 26.8212C90.3152 26.5473 89.8646 26.172 89.5395 25.6954C89.2145 25.2188 89.0486 24.6672 89.042 24.0406C89.0315 23.0406 89.3966 22.2634 90.1375 21.7089C90.8915 21.1409 91.9285 20.8499 93.2484 20.836C94.155 20.8264 95.0098 20.9574 95.8127 21.2289L95.8047 20.469C95.7983 19.869 95.6069 19.4177 95.2303 19.1149C94.8538 18.8122 94.3055 18.6647 93.5856 18.6723C93.1456 18.6769 92.6731 18.7553 92.168 18.9073C91.6628 19.0459 91.0784 19.2655 90.4148 19.5658L89.3936 17.5565C90.2162 17.1745 90.9999 16.8862 91.7446 16.6916C92.5025 16.4969 93.2615 16.3956 94.0215 16.3876C95.4214 16.3728 96.5116 16.7013 97.2921 17.3731C98.0857 18.0314 98.489 18.9739 98.502 20.2005L98.5734 26.9601L95.8735 26.9886L95.8657 26.2486C95.4425 26.5731 94.9849 26.8113 94.4932 26.9632C94.0014 27.115 93.4622 27.1941 92.8756 27.2003ZM91.6412 23.9531C91.6455 24.3531 91.8222 24.6712 92.1714 24.9076C92.5204 25.1306 92.9816 25.239 93.5549 25.233C94.0082 25.2282 94.4276 25.1704 94.8131 25.0597C95.1985 24.9356 95.5433 24.7586 95.8476 24.5287L95.8315 23.0088C95.4968 22.879 95.1491 22.7827 94.7884 22.7198C94.4277 22.657 94.0407 22.6277 93.6274 22.6321C93.0008 22.6387 92.5087 22.7639 92.1513 23.0077C91.807 23.238 91.637 23.5531 91.6412 23.9531Z" fill="#346633"/>
<path d="M18.583 3.42016C19.1764 3.42164 19.7561 3.59935 20.2483 3.93075L32.3147 11.9785C32.7817 12.2981 33.1623 12.7283 33.4226 13.2308C33.6829 13.7332 33.8148 14.2923 33.8065 14.8581L33.7907 30.4024C33.7888 32.2676 32.3724 33.7852 30.6332 33.7852H6.57816C6.1769 33.7834 5.77999 33.7019 5.41044 33.5456C5.04088 33.3893 4.70602 33.1612 4.42526 32.8745C4.10209 32.5482 3.84689 32.1611 3.67445 31.7355C3.502 31.3099 3.41573 30.8543 3.42065 30.3951L3.43643 14.8443C3.42955 14.2811 3.56142 13.725 3.82041 13.2249C4.07939 12.7248 4.45753 12.2961 4.92144 11.9767L16.9101 3.93522C17.404 3.60086 17.9866 3.42157 18.583 3.42016ZM18.5827 0C17.3076 0.00127046 16.0618 0.38252 15.0044 1.09506L3.01567 9.13653C2.08712 9.76951 1.32806 10.6206 0.805046 11.6151C0.282028 12.6097 0.0110226 13.7173 0.0157911 14.8409L3.65052e-06 30.3918C-0.00378537 34.1537 2.94249 39 6.57816 39L30.6332 35.9684C34.2635 35.9684 37.2075 34.1624 37.2113 30.406L37.2271 14.8617C37.2343 13.7327 36.9629 12.6194 36.4372 11.6203C35.9115 10.6212 35.1475 9.76708 34.2129 9.1335L22.1466 1.0858C21.0923 0.379132 19.8519 0.00118854 18.5827 0Z" fill="#346633"/>
<path d="M21.2889 27.7079C20.177 27.977 19.0969 28.0347 18.0487 27.881C16.997 27.713 16.0231 27.3678 15.127 26.8452C14.2275 26.3084 13.4589 25.6267 12.8213 24.8002C12.1944 23.956 11.7499 22.9922 11.4877 21.9088C11.2255 20.8254 11.1818 19.7721 11.3567 18.7489C11.5424 17.708 11.9071 16.7521 12.4508 15.8811C12.991 14.9958 13.6921 14.2452 14.5541 13.6291C15.4268 12.9954 16.412 12.5457 17.5096 12.28C18.7498 11.9798 19.9791 11.9464 21.1975 12.1797C22.4125 12.3987 23.4833 12.8639 24.4099 13.5752L22.7316 16.0864C22.0631 15.5692 21.34 15.2311 20.5621 15.0723C19.7843 14.9135 18.9962 14.9307 18.1979 15.1239C17.5279 15.2861 16.9389 15.5644 16.4308 15.959C15.9192 16.3394 15.5031 16.8022 15.1824 17.3477C14.8583 17.8788 14.6475 18.4731 14.55 19.1304C14.4634 19.7701 14.5046 20.4392 14.6737 21.1377C14.8427 21.8362 15.1209 22.4555 15.5081 22.9955C15.8954 23.5356 16.3563 23.9748 16.8909 24.3132C17.4363 24.6339 18.0252 24.8536 18.6575 24.9722C19.3006 25.073 19.9643 25.0407 20.6485 24.8751C21.3613 24.7026 21.9717 24.419 22.4798 24.0244C22.9845 23.6156 23.3723 23.1294 23.6433 22.5658C23.9252 21.9845 24.0578 21.379 24.0412 20.7492L19.615 21.8205L18.9629 19.1263L26.7034 17.2529L26.9311 18.1937C27.2002 19.3056 27.2562 20.3785 27.099 21.4125C26.9526 22.4288 26.629 23.3673 26.1281 24.2279C25.6237 25.0743 24.9619 25.8004 24.1427 26.4061C23.3235 27.0118 22.3723 27.4457 21.2889 27.7079Z" fill="#346633"/>
<path d="M7.41265 29.5105C7.38182 29.4733 7.32822 29.4612 7.28248 29.481C7.16821 29.5456 4.30133 31.0451 4.16513 32.989C4.10409 33.8721 4.61616 34.7039 5.68396 35.458L5.83924 35.2368C5.82619 35.2866 5.47823 36.4289 5.52417 36.4393C5.57012 36.4497 5.62725 36.4174 5.63844 36.3747L5.86774 35.4995C7.20441 35.2894 8.06884 34.7765 8.45336 33.959C9.29406 32.1745 7.48983 29.6184 7.41265 29.5105Z" fill="#346633"/>
<ellipse cx="7.9699" cy="27.9424" rx="1.01425" ry="0.942418" fill="#F7B11C"/>
<path d="M10.3273 30.7732C10.3017 30.7423 10.2572 30.7323 10.2192 30.7487C10.1244 30.8023 7.74498 32.0468 7.63194 33.6602C7.58128 34.3931 8.00628 35.0835 8.89251 35.7093L9.02138 35.5258C9.01055 35.5672 8.72176 36.5152 8.75989 36.5238C8.79802 36.5324 8.84544 36.5056 8.85472 36.4702L9.04504 35.7438C10.1544 35.5694 10.8719 35.1437 11.191 34.4653C11.8887 32.9842 10.3913 30.8627 10.3273 30.7732Z" fill="#346633"/>
<ellipse cx="10.6236" cy="29.5672" rx="0.733412" ry="0.681467" fill="#D9D9D9"/>
<path d="M12.2404 32.2134C12.2208 32.1898 12.1867 32.1821 12.1576 32.1947C12.085 32.2358 10.2628 33.1889 10.1762 34.4245C10.1374 34.9858 10.4629 35.5145 11.1416 35.9938L11.2403 35.8533C11.232 35.8849 11.0108 36.611 11.04 36.6176C11.0692 36.6242 11.1055 36.6037 11.1127 36.5765L11.2584 36.0203C12.108 35.8867 12.6575 35.5607 12.9019 35.0411C13.4363 33.9068 12.2894 32.282 12.2404 32.2134Z" fill="#346633"/>
<ellipse cx="12.3634" cy="31.3966" rx="0.67617" ry="0.628279" fill="#D9D9D9"/>
<path d="M45.7188 18.7565L49.4264 27.8542H42.0111L45.7188 18.7565Z" fill="#346633"/>
<circle cx="45.9879" cy="14.0303" r="2.04369" transform="rotate(-11.4815 45.9879 14.0303)" fill="#346633"/>
</svg>
