<svg width="1440" height="1647" viewBox="0 0 1440 1647" fill="none" xmlns="http://www.w3.org/2000/svg">
<mask id="path-1-inside-1_1_225" fill="white">
<path d="M0.5 251C0.5 112.377 112.877 0 251.5 0H1188.5C1327.12 0 1439.5 112.377 1439.5 251V1647H0.5V251Z"/>
</mask>
<path d="M0.5 251C0.5 112.377 112.877 0 251.5 0H1188.5C1327.12 0 1439.5 112.377 1439.5 251V1647H0.5V251Z" fill="url(#paint0_linear_1_225)" fill-opacity="0.1"/>
<path d="M0.5 251C0.5 111.272 113.772 -2 253.5 -2H1186.5C1326.23 -2 1439.5 111.272 1439.5 251C1439.5 113.481 1327.12 2 1188.5 2H251.5C112.877 2 0.5 113.481 0.5 251ZM1439.5 1647H0.5H1439.5ZM0.5 1647V0V1647ZM1439.5 0V1647V0Z" fill="url(#paint1_linear_1_225)" mask="url(#path-1-inside-1_1_225)"/>
<defs>
<linearGradient id="paint0_linear_1_225" x1="905.419" y1="1647" x2="-122.501" y2="771.301" gradientUnits="userSpaceOnUse">
<stop offset="0.153998" stop-color="#FFFFFB"/>
<stop offset="0.665734" stop-color="#F6FDF4"/>
<stop offset="1" stop-color="#FFEDCB"/>
</linearGradient>
<linearGradient id="paint1_linear_1_225" x1="1439.5" y1="823.5" x2="0.5" y2="823.5" gradientUnits="userSpaceOnUse">
<stop offset="0.42" stop-color="#335F32"/>
<stop offset="1" stop-color="#EAA315"/>
</linearGradient>
</defs>
</svg>
