<svg width="58" height="58" viewBox="0 0 58 58" fill="none" xmlns="http://www.w3.org/2000/svg">
<g filter="url(#filter0_d_1_784)">
<circle cx="28.999" cy="24.999" r="25.001" fill="white"/>
<circle cx="28.9989" cy="24.9989" r="21.7787" fill="white"/>
<circle cx="28.9989" cy="24.9989" r="21.7787" stroke="url(#paint0_linear_1_784)" stroke-width="2"/>
<circle cx="28.9989" cy="24.9989" r="21.7787" stroke="black" stroke-opacity="0.2" stroke-width="2"/>
<path d="M34.0918 23.8131C33.7863 23.8131 33.5826 23.6981 33.3789 23.4681L28.2863 17.7171C27.8789 17.257 27.8789 16.5669 28.2863 16.1068C28.6937 15.6467 29.3048 15.6467 29.7122 16.1068L34.8048 21.8578C35.2122 22.3179 35.2122 23.008 34.8048 23.4681C34.6011 23.6981 34.3974 23.8131 34.0918 23.8131Z" fill="#335F32"/>
<path d="M34.0918 23.8131C33.7863 23.8131 33.5826 23.6981 33.3789 23.4681L28.2863 17.7171C27.8789 17.257 27.8789 16.5669 28.2863 16.1068C28.6937 15.6467 29.3048 15.6467 29.7122 16.1068L34.8048 21.8578C35.2122 22.3179 35.2122 23.008 34.8048 23.4681C34.6011 23.6981 34.3974 23.8131 34.0918 23.8131Z" fill="black" fill-opacity="0.2"/>
<path d="M23.9072 23.8131C23.6016 23.8131 23.3979 23.6981 23.1942 23.4681C22.7868 23.008 22.7868 22.3179 23.1942 21.8578L28.2868 16.1068C28.6942 15.6467 29.3054 15.6467 29.7128 16.1068C30.1202 16.5669 30.1202 17.257 29.7128 17.7171L24.6202 23.4681C24.4165 23.6981 24.2127 23.8131 23.9072 23.8131Z" fill="#335F32"/>
<path d="M23.9072 23.8131C23.6016 23.8131 23.3979 23.6981 23.1942 23.4681C22.7868 23.008 22.7868 22.3179 23.1942 21.8578L28.2868 16.1068C28.6942 15.6467 29.3054 15.6467 29.7128 16.1068C30.1202 16.5669 30.1202 17.257 29.7128 17.7171L24.6202 23.4681C24.4165 23.6981 24.2127 23.8131 23.9072 23.8131Z" fill="black" fill-opacity="0.2"/>
<path d="M28.9992 36.4653C28.3881 36.4653 27.9807 36.0052 27.9807 35.3151V16.9119C27.9807 16.2218 28.3881 15.7617 28.9992 15.7617C29.6103 15.7617 30.0178 16.2218 30.0178 16.9119V35.3151C30.0178 36.0052 29.6103 36.4653 28.9992 36.4653Z" fill="#335F32"/>
<path d="M28.9992 36.4653C28.3881 36.4653 27.9807 36.0052 27.9807 35.3151V16.9119C27.9807 16.2218 28.3881 15.7617 28.9992 15.7617C29.6103 15.7617 30.0178 16.2218 30.0178 16.9119V35.3151C30.0178 36.0052 29.6103 36.4653 28.9992 36.4653Z" fill="black" fill-opacity="0.2"/>
</g>
<defs>
<filter id="filter0_d_1_784" x="-0.00195312" y="-0.00195312" width="58.002" height="58.002" filterUnits="userSpaceOnUse" color-interpolation-filters="sRGB">
<feFlood flood-opacity="0" result="BackgroundImageFix"/>
<feColorMatrix in="SourceAlpha" type="matrix" values="0 0 0 0 0 0 0 0 0 0 0 0 0 0 0 0 0 0 127 0" result="hardAlpha"/>
<feOffset dy="4"/>
<feGaussianBlur stdDeviation="2"/>
<feComposite in2="hardAlpha" operator="out"/>
<feColorMatrix type="matrix" values="0 0 0 0 0 0 0 0 0 0 0 0 0 0 0 0 0 0 0.25 0"/>
<feBlend mode="normal" in2="BackgroundImageFix" result="effect1_dropShadow_1_784"/>
<feBlend mode="normal" in="SourceGraphic" in2="effect1_dropShadow_1_784" result="shape"/>
</filter>
<linearGradient id="paint0_linear_1_784" x1="51.7775" y1="24.9989" x2="6.22021" y2="24.9989" gradientUnits="userSpaceOnUse">
<stop offset="0.42" stop-color="#335F32"/>
<stop offset="1" stop-color="#EAA315"/>
</linearGradient>
</defs>
</svg>
