<svg width="14" height="13" viewBox="0 0 14 13" fill="none" xmlns="http://www.w3.org/2000/svg">
<path d="M12.3133 12L9.72247 9.34167M11.1221 5.88889C11.1221 8.58895 8.98886 10.7778 6.35738 10.7778C3.72589 10.7778 1.59265 8.58895 1.59265 5.88889C1.59265 3.18883 3.72589 1 6.35738 1C8.98886 1 11.1221 3.18883 11.1221 5.88889Z" stroke="#335F32" stroke-width="1.66667" stroke-linecap="round" stroke-linejoin="round"/>
<path d="M12.3133 12L9.72247 9.34167M11.1221 5.88889C11.1221 8.58895 8.98886 10.7778 6.35738 10.7778C3.72589 10.7778 1.59265 8.58895 1.59265 5.88889C1.59265 3.18883 3.72589 1 6.35738 1C8.98886 1 11.1221 3.18883 11.1221 5.88889Z" stroke="black" stroke-opacity="0.2" stroke-width="1.66667" stroke-linecap="round" stroke-linejoin="round"/>
</svg>
