<svg width="16" height="20" viewBox="0 0 16 20" fill="none" xmlns="http://www.w3.org/2000/svg">
<path d="M15.2379 2.96296H14.4759C13.6356 2.96296 12.9521 2.29852 12.9521 1.48148V0.740741C12.9521 0.544284 12.8719 0.355874 12.729 0.216958C12.5861 0.0780421 12.3923 0 12.1902 0H9.14261C8.94054 0 8.74675 0.0780421 8.60386 0.216958C8.46098 0.355874 8.38071 0.544284 8.38071 0.740741V13.7037C8.38071 14.7244 7.52661 15.5556 6.47595 15.5556C5.42528 15.5556 4.57118 14.7244 4.57118 13.7037C4.57118 12.683 5.42528 11.8519 6.47595 11.8519C6.54376 11.8519 6.60395 11.8304 6.66642 11.8148C6.7289 11.8304 6.78909 11.8519 6.8569 11.8519C7.05897 11.8519 7.25276 11.7738 7.39565 11.6349C7.53853 11.496 7.6188 11.3076 7.6188 11.1111V8.14815C7.6188 7.95169 7.53853 7.76328 7.39565 7.62437C7.25276 7.48545 7.05897 7.40741 6.8569 7.40741C6.78909 7.40741 6.7289 7.42889 6.66642 7.44444C6.60395 7.42889 6.54376 7.40741 6.47595 7.40741C2.9049 7.40741 -0.000244141 10.2319 -0.000244141 13.7037C-0.000244141 17.1756 2.9049 20 6.47595 20C9.8748 20 12.6657 17.4393 12.9262 14.1985C12.9339 14.1563 12.9521 14.1178 12.9521 14.0741V7.15704C14.1361 7.54889 15.2752 7.40889 15.3384 7.40074C15.5214 7.37705 15.6894 7.28956 15.811 7.15454C15.9326 7.01952 15.9997 6.84615 15.9998 6.66667V3.7037C15.9998 3.50725 15.9195 3.31884 15.7766 3.17992C15.6337 3.04101 15.4399 2.96296 15.2379 2.96296ZM14.4759 5.94296C13.9518 5.91407 13.2211 5.78741 12.6718 5.35185C12.5601 5.26329 12.4248 5.20735 12.2817 5.19052C12.1387 5.17369 11.9936 5.19667 11.8634 5.25678C11.7332 5.31688 11.6232 5.41166 11.5462 5.53011C11.4692 5.64855 11.4283 5.7858 11.4283 5.92593V13.7037C11.4283 16.3585 9.20661 18.5185 6.47595 18.5185C3.74528 18.5185 1.52357 16.3585 1.52357 13.7037C1.52357 11.1741 3.54185 9.09778 6.09499 8.90741V10.4074C4.38528 10.5941 3.04737 11.9919 3.04737 13.703C3.04737 15.5407 4.58566 17.0363 6.47595 17.0363C8.36623 17.0363 9.90452 15.5407 9.90452 13.703V1.48148H11.4283C11.4283 3.11556 12.7952 4.44444 14.4759 4.44444V5.94296Z" fill="#335F32"/>
<path d="M15.2379 2.96296H14.4759C13.6356 2.96296 12.9521 2.29852 12.9521 1.48148V0.740741C12.9521 0.544284 12.8719 0.355874 12.729 0.216958C12.5861 0.0780421 12.3923 0 12.1902 0H9.14261C8.94054 0 8.74675 0.0780421 8.60386 0.216958C8.46098 0.355874 8.38071 0.544284 8.38071 0.740741V13.7037C8.38071 14.7244 7.52661 15.5556 6.47595 15.5556C5.42528 15.5556 4.57118 14.7244 4.57118 13.7037C4.57118 12.683 5.42528 11.8519 6.47595 11.8519C6.54376 11.8519 6.60395 11.8304 6.66642 11.8148C6.7289 11.8304 6.78909 11.8519 6.8569 11.8519C7.05897 11.8519 7.25276 11.7738 7.39565 11.6349C7.53853 11.496 7.6188 11.3076 7.6188 11.1111V8.14815C7.6188 7.95169 7.53853 7.76328 7.39565 7.62437C7.25276 7.48545 7.05897 7.40741 6.8569 7.40741C6.78909 7.40741 6.7289 7.42889 6.66642 7.44444C6.60395 7.42889 6.54376 7.40741 6.47595 7.40741C2.9049 7.40741 -0.000244141 10.2319 -0.000244141 13.7037C-0.000244141 17.1756 2.9049 20 6.47595 20C9.8748 20 12.6657 17.4393 12.9262 14.1985C12.9339 14.1563 12.9521 14.1178 12.9521 14.0741V7.15704C14.1361 7.54889 15.2752 7.40889 15.3384 7.40074C15.5214 7.37705 15.6894 7.28956 15.811 7.15454C15.9326 7.01952 15.9997 6.84615 15.9998 6.66667V3.7037C15.9998 3.50725 15.9195 3.31884 15.7766 3.17992C15.6337 3.04101 15.4399 2.96296 15.2379 2.96296ZM14.4759 5.94296C13.9518 5.91407 13.2211 5.78741 12.6718 5.35185C12.5601 5.26329 12.4248 5.20735 12.2817 5.19052C12.1387 5.17369 11.9936 5.19667 11.8634 5.25678C11.7332 5.31688 11.6232 5.41166 11.5462 5.53011C11.4692 5.64855 11.4283 5.7858 11.4283 5.92593V13.7037C11.4283 16.3585 9.20661 18.5185 6.47595 18.5185C3.74528 18.5185 1.52357 16.3585 1.52357 13.7037C1.52357 11.1741 3.54185 9.09778 6.09499 8.90741V10.4074C4.38528 10.5941 3.04737 11.9919 3.04737 13.703C3.04737 15.5407 4.58566 17.0363 6.47595 17.0363C8.36623 17.0363 9.90452 15.5407 9.90452 13.703V1.48148H11.4283C11.4283 3.11556 12.7952 4.44444 14.4759 4.44444V5.94296Z" fill="black" fill-opacity="0.2"/>
</svg>
