<svg width="18" height="16" viewBox="0 0 18 16" fill="none" xmlns="http://www.w3.org/2000/svg">
<path d="M17.9943 1.11843C17.9944 0.967469 17.9562 0.819176 17.8836 0.688655C17.811 0.558133 17.7066 0.450047 17.581 0.375404C17.4554 0.300761 17.3132 0.262227 17.1687 0.263726C17.0242 0.265226 16.8827 0.306706 16.7586 0.383941C16.2799 0.681698 15.7644 0.909725 15.2266 1.0617C14.4586 0.373029 13.479 -0.00382234 12.4669 2.92337e-05C11.3567 0.00136478 10.2903 0.453514 9.49314 1.261C8.69594 2.06849 8.23025 3.16811 8.19441 4.32766C6.00562 3.96294 4.02187 2.76918 2.62144 0.974035C2.53706 0.86706 2.42929 0.782856 2.30724 0.728526C2.18518 0.674196 2.05241 0.651333 1.92013 0.661865C1.78792 0.67324 1.66035 0.718096 1.54846 0.792554C1.43656 0.867011 1.34371 0.968829 1.27793 1.0892C0.940556 1.70441 0.746793 2.39409 0.712374 3.10223C0.677955 3.81037 0.80385 4.51701 1.07984 5.16477L1.07824 5.16643C0.954199 5.24627 0.851832 5.35802 0.780929 5.491C0.710026 5.62398 0.672958 5.77374 0.673269 5.92597C0.671768 6.05154 0.678976 6.17707 0.694838 6.30156C0.778379 7.37697 1.23449 8.3836 1.97764 9.13267C1.92722 9.23303 1.89646 9.34288 1.88713 9.45581C1.8778 9.56873 1.89011 9.68247 1.92332 9.79037C2.24731 10.8452 2.93632 11.7357 3.85551 12.2876C2.92164 12.665 1.91328 12.7965 0.919285 12.6707C0.735311 12.6466 0.548953 12.6885 0.390781 12.7896C0.23261 12.8907 0.112015 13.045 0.04878 13.2271C-0.014455 13.4093 -0.016576 13.6084 0.0427649 13.792C0.102106 13.9756 0.219385 14.1326 0.375365 14.2374C2.08491 15.3879 4.07539 15.9996 6.10883 15.9993C8.41477 16.0264 10.6646 15.2564 12.5085 13.8092C14.3523 12.3619 15.6867 10.3184 16.3041 7.9967C16.5929 6.9853 16.7403 5.93562 16.7418 4.88017C16.7418 4.82425 16.7418 4.76666 16.741 4.70907C17.1681 4.22783 17.4989 3.66235 17.7141 3.04578C17.9293 2.42922 18.0245 1.77396 17.9943 1.11843ZM15.2897 3.86358C15.1546 4.03053 15.0862 4.24544 15.0988 4.46369C15.1068 4.60471 15.106 4.74658 15.106 4.88017C15.1043 5.77206 14.9792 6.65901 14.7345 7.51348C14.2303 9.48897 13.1062 11.2305 11.5423 12.4591C9.97832 13.6878 8.06504 14.3325 6.10883 14.29C5.40613 14.2902 4.70586 14.2039 4.02248 14.0329C4.89391 13.7394 5.70871 13.287 6.42913 12.6966C6.56182 12.5875 6.65893 12.4381 6.70713 12.2689C6.75534 12.0998 6.75228 11.9192 6.69837 11.752C6.64446 11.5847 6.54235 11.439 6.40605 11.3348C6.26974 11.2307 6.10592 11.1731 5.93707 11.1701C5.25723 11.159 4.60804 10.8726 4.12629 10.3713C4.2485 10.3471 4.36991 10.317 4.49052 10.2812C4.6672 10.2286 4.82182 10.1155 4.92947 9.95992C5.03713 9.80438 5.09155 9.61551 5.08399 9.42372C5.07643 9.23193 5.00731 9.04838 4.88778 8.90263C4.76824 8.75688 4.60524 8.6574 4.42502 8.62022C4.03041 8.53878 3.65908 8.36335 3.3399 8.10757C3.02072 7.85178 2.76229 7.52252 2.58469 7.14539C2.73252 7.16648 2.88128 7.17957 3.0304 7.18462C3.20755 7.18742 3.38096 7.13127 3.52555 7.02429C3.67014 6.91731 3.77843 6.76505 3.83474 6.58952C3.88871 6.4124 3.88593 6.22172 3.82683 6.0464C3.76774 5.87108 3.65554 5.72067 3.50726 5.61799C3.14749 5.36755 2.85279 5.02777 2.64954 4.6291C2.4463 4.23042 2.34086 3.78529 2.34267 3.33358C2.34267 3.27683 2.34427 3.22007 2.34746 3.16415C4.18065 4.95064 6.5584 6.00377 9.06181 6.13799C9.18817 6.14319 9.31402 6.11832 9.42984 6.06526C9.54566 6.01219 9.64842 5.93232 9.73037 5.83167C9.81149 5.73005 9.86893 5.61015 9.89817 5.48139C9.92741 5.35263 9.92765 5.21854 9.89886 5.08968C9.85209 4.88572 9.82823 4.67676 9.82778 4.46703C9.82852 3.73588 10.1068 3.03491 10.6016 2.51791C11.0963 2.00091 11.7672 1.71013 12.4669 1.70936C12.8269 1.70835 13.1832 1.78534 13.5133 1.93546C13.8433 2.08558 14.1401 2.30558 14.3847 2.58156C14.479 2.68761 14.5978 2.76668 14.7296 2.81124C14.8614 2.85581 15.002 2.86438 15.1379 2.83616C15.4739 2.76784 15.8051 2.67582 16.1292 2.56073C15.9081 3.03334 15.6256 3.47177 15.2897 3.86358Z" fill="#335F32"/>
<path d="M17.9943 1.11843C17.9944 0.967469 17.9562 0.819176 17.8836 0.688655C17.811 0.558133 17.7066 0.450047 17.581 0.375404C17.4554 0.300761 17.3132 0.262227 17.1687 0.263726C17.0242 0.265226 16.8827 0.306706 16.7586 0.383941C16.2799 0.681698 15.7644 0.909725 15.2266 1.0617C14.4586 0.373029 13.479 -0.00382234 12.4669 2.92337e-05C11.3567 0.00136478 10.2903 0.453514 9.49314 1.261C8.69594 2.06849 8.23025 3.16811 8.19441 4.32766C6.00562 3.96294 4.02187 2.76918 2.62144 0.974035C2.53706 0.86706 2.42929 0.782856 2.30724 0.728526C2.18518 0.674196 2.05241 0.651333 1.92013 0.661865C1.78792 0.67324 1.66035 0.718096 1.54846 0.792554C1.43656 0.867011 1.34371 0.968829 1.27793 1.0892C0.940556 1.70441 0.746793 2.39409 0.712374 3.10223C0.677955 3.81037 0.80385 4.51701 1.07984 5.16477L1.07824 5.16643C0.954199 5.24627 0.851832 5.35802 0.780929 5.491C0.710026 5.62398 0.672958 5.77374 0.673269 5.92597C0.671768 6.05154 0.678976 6.17707 0.694838 6.30156C0.778379 7.37697 1.23449 8.3836 1.97764 9.13267C1.92722 9.23303 1.89646 9.34288 1.88713 9.45581C1.8778 9.56873 1.89011 9.68247 1.92332 9.79037C2.24731 10.8452 2.93632 11.7357 3.85551 12.2876C2.92164 12.665 1.91328 12.7965 0.919285 12.6707C0.735311 12.6466 0.548953 12.6885 0.390781 12.7896C0.23261 12.8907 0.112015 13.045 0.04878 13.2271C-0.014455 13.4093 -0.016576 13.6084 0.0427649 13.792C0.102106 13.9756 0.219385 14.1326 0.375365 14.2374C2.08491 15.3879 4.07539 15.9996 6.10883 15.9993C8.41477 16.0264 10.6646 15.2564 12.5085 13.8092C14.3523 12.3619 15.6867 10.3184 16.3041 7.9967C16.5929 6.9853 16.7403 5.93562 16.7418 4.88017C16.7418 4.82425 16.7418 4.76666 16.741 4.70907C17.1681 4.22783 17.4989 3.66235 17.7141 3.04578C17.9293 2.42922 18.0245 1.77396 17.9943 1.11843ZM15.2897 3.86358C15.1546 4.03053 15.0862 4.24544 15.0988 4.46369C15.1068 4.60471 15.106 4.74658 15.106 4.88017C15.1043 5.77206 14.9792 6.65901 14.7345 7.51348C14.2303 9.48897 13.1062 11.2305 11.5423 12.4591C9.97832 13.6878 8.06504 14.3325 6.10883 14.29C5.40613 14.2902 4.70586 14.2039 4.02248 14.0329C4.89391 13.7394 5.70871 13.287 6.42913 12.6966C6.56182 12.5875 6.65893 12.4381 6.70713 12.2689C6.75534 12.0998 6.75228 11.9192 6.69837 11.752C6.64446 11.5847 6.54235 11.439 6.40605 11.3348C6.26974 11.2307 6.10592 11.1731 5.93707 11.1701C5.25723 11.159 4.60804 10.8726 4.12629 10.3713C4.2485 10.3471 4.36991 10.317 4.49052 10.2812C4.6672 10.2286 4.82182 10.1155 4.92947 9.95992C5.03713 9.80438 5.09155 9.61551 5.08399 9.42372C5.07643 9.23193 5.00731 9.04838 4.88778 8.90263C4.76824 8.75688 4.60524 8.6574 4.42502 8.62022C4.03041 8.53878 3.65908 8.36335 3.3399 8.10757C3.02072 7.85178 2.76229 7.52252 2.58469 7.14539C2.73252 7.16648 2.88128 7.17957 3.0304 7.18462C3.20755 7.18742 3.38096 7.13127 3.52555 7.02429C3.67014 6.91731 3.77843 6.76505 3.83474 6.58952C3.88871 6.4124 3.88593 6.22172 3.82683 6.0464C3.76774 5.87108 3.65554 5.72067 3.50726 5.61799C3.14749 5.36755 2.85279 5.02777 2.64954 4.6291C2.4463 4.23042 2.34086 3.78529 2.34267 3.33358C2.34267 3.27683 2.34427 3.22007 2.34746 3.16415C4.18065 4.95064 6.5584 6.00377 9.06181 6.13799C9.18817 6.14319 9.31402 6.11832 9.42984 6.06526C9.54566 6.01219 9.64842 5.93232 9.73037 5.83167C9.81149 5.73005 9.86893 5.61015 9.89817 5.48139C9.92741 5.35263 9.92765 5.21854 9.89886 5.08968C9.85209 4.88572 9.82823 4.67676 9.82778 4.46703C9.82852 3.73588 10.1068 3.03491 10.6016 2.51791C11.0963 2.00091 11.7672 1.71013 12.4669 1.70936C12.8269 1.70835 13.1832 1.78534 13.5133 1.93546C13.8433 2.08558 14.1401 2.30558 14.3847 2.58156C14.479 2.68761 14.5978 2.76668 14.7296 2.81124C14.8614 2.85581 15.002 2.86438 15.1379 2.83616C15.4739 2.76784 15.8051 2.67582 16.1292 2.56073C15.9081 3.03334 15.6256 3.47177 15.2897 3.86358Z" fill="black" fill-opacity="0.2"/>
</svg>
