<svg width="84" height="31" viewBox="0 0 84 31" fill="none" xmlns="http://www.w3.org/2000/svg">
<rect x="0.5" y="0.5" width="83" height="30" rx="15" fill="#FAFFFA" stroke="#D9D9D9"/>
<path d="M37.344 20.12C36.584 20.12 35.924 19.968 35.364 19.664C34.812 19.36 34.384 18.928 34.08 18.368C33.776 17.8 33.624 17.136 33.624 16.376V11.6H35.364V16.376C35.364 16.808 35.444 17.188 35.604 17.516C35.772 17.836 36.004 18.084 36.3 18.26C36.604 18.428 36.956 18.512 37.356 18.512C37.756 18.512 38.104 18.428 38.4 18.26C38.696 18.084 38.924 17.836 39.084 17.516C39.252 17.188 39.336 16.808 39.336 16.376V11.6H41.064V16.376C41.064 17.128 40.912 17.788 40.608 18.356C40.304 18.916 39.872 19.352 39.312 19.664C38.76 19.968 38.104 20.12 37.344 20.12ZM45.4513 20.12C44.7713 20.12 44.1073 19.996 43.4593 19.748C42.8113 19.492 42.2353 19.132 41.7313 18.668L42.7273 17.42C43.2153 17.852 43.6833 18.164 44.1313 18.356C44.5873 18.548 45.0673 18.644 45.5713 18.644C45.9233 18.644 46.2273 18.604 46.4833 18.524C46.7393 18.436 46.9353 18.312 47.0713 18.152C47.2153 17.992 47.2873 17.804 47.2873 17.588C47.2873 17.3 47.1833 17.08 46.9753 16.928C46.7673 16.768 46.4113 16.644 45.9073 16.556L44.2393 16.268C43.5273 16.148 42.9833 15.896 42.6073 15.512C42.2393 15.128 42.0553 14.632 42.0553 14.024C42.0553 13.504 42.1873 13.052 42.4513 12.668C42.7233 12.284 43.1033 11.992 43.5913 11.792C44.0873 11.584 44.6753 11.48 45.3553 11.48C45.9713 11.48 46.5833 11.584 47.1913 11.792C47.8073 12 48.3513 12.288 48.8233 12.656L47.8873 13.952C47.0073 13.28 46.1233 12.944 45.2353 12.944C44.9233 12.944 44.6513 12.984 44.4193 13.064C44.1873 13.144 44.0073 13.256 43.8793 13.4C43.7593 13.536 43.6993 13.7 43.6993 13.892C43.6993 14.148 43.7913 14.348 43.9753 14.492C44.1593 14.628 44.4673 14.732 44.8993 14.804L46.4833 15.068C47.3233 15.204 47.9513 15.472 48.3673 15.872C48.7833 16.264 48.9913 16.784 48.9913 17.432C48.9913 17.976 48.8473 18.452 48.5593 18.86C48.2713 19.26 47.8593 19.572 47.3233 19.796C46.7953 20.012 46.1713 20.12 45.4513 20.12ZM51.7616 18.452H53.2256C53.6016 18.452 53.9496 18.388 54.2696 18.26C54.5976 18.124 54.8816 17.936 55.1216 17.696C55.3696 17.456 55.5576 17.176 55.6856 16.856C55.8216 16.536 55.8896 16.188 55.8896 15.812C55.8896 15.436 55.8216 15.088 55.6856 14.768C55.5496 14.44 55.3616 14.156 55.1216 13.916C54.8816 13.676 54.5976 13.488 54.2696 13.352C53.9496 13.216 53.6016 13.148 53.2256 13.148H51.7616V18.452ZM50.0216 20V11.6H53.2496C53.8816 11.6 54.4656 11.708 55.0016 11.924C55.5376 12.132 56.0056 12.428 56.4056 12.812C56.8056 13.196 57.1176 13.644 57.3416 14.156C57.5736 14.668 57.6896 15.22 57.6896 15.812C57.6896 16.412 57.5776 16.964 57.3536 17.468C57.1296 17.972 56.8136 18.416 56.4056 18.8C56.0056 19.176 55.5376 19.472 55.0016 19.688C54.4656 19.896 53.8816 20 53.2496 20H50.0216Z" fill="black"/>
<path d="M71.8071 18.8697C71.8115 18.8649 71.8133 18.8585 71.8176 18.8537L74.872 15.768C75.0427 15.5944 75.0427 15.3128 74.872 15.1392C74.8703 15.1376 74.8685 15.1368 74.8668 15.136C74.8288 15.094 74.7813 15.06 74.7275 15.0365C74.6737 15.013 74.6149 15.0006 74.5553 15H68.4456C68.3849 15.0009 68.3251 15.014 68.2706 15.0383C68.216 15.0626 68.1679 15.0976 68.1298 15.1408L68.128 15.1392C68.0454 15.2266 68 15.3382 68 15.4536C68 15.5691 68.0454 15.6807 68.128 15.768L71.1894 18.8697C71.2275 18.9106 71.2749 18.9434 71.3282 18.9659C71.3815 18.9884 71.4395 19 71.4983 19C71.557 19 71.615 18.9884 71.6683 18.9659C71.7217 18.9434 71.769 18.9106 71.8071 18.8697Z" fill="#4B4B4B"/>
<path d="M16.0005 8C11.5892 8 8.00049 11.5887 8.00049 16C8.00049 20.4113 11.5892 24 16.0005 24C20.4117 24 24.0002 20.4113 24.0002 16C24.0002 11.5887 20.4115 8 16.0005 8Z" fill="#E90000"/>
<path d="M9.3694 20.4706H22.6312C23.0707 19.8213 23.4119 19.1107 23.6439 18.3619H8.35645C8.58858 19.1107 8.9299 19.8213 9.3694 20.4706ZM16.0002 23.9997C17.624 24.0012 19.2093 23.5056 20.5431 22.5795H11.4573C12.7911 23.5055 14.3764 24.0011 16.0002 23.9997ZM17.7956 16.2529H23.9935C23.9962 16.1685 23.9999 16.0847 23.9999 15.9997C23.9999 15.3609 23.9225 14.74 23.7804 14.1442H17.7956V16.2529ZM17.7956 12.0353H22.9442C22.487 11.2378 21.8965 10.5246 21.1985 9.92656H17.7956V12.0353Z" fill="#F1F1F1"/>
<path d="M18.0625 14.1445V8.27133C17.3898 8.0911 16.6964 7.99988 16 8C11.5887 8 8 11.5887 8 16C8 16.0849 8.00374 16.169 8.00641 16.2532H18.0625V14.1445Z" fill="#0000D2"/>
<path d="M12.0139 9.73177L11.8064 10.1524L11.3423 10.22L11.678 10.5474L11.5989 11.0096L12.0139 10.7915L12.4292 11.0096L12.3499 10.5474L12.6858 10.22L12.2217 10.1524L12.0139 9.73177ZM14.3664 9.73177L14.1589 10.1524L13.6945 10.22L14.0305 10.5474L13.9512 11.0096L14.3664 10.7915L14.7817 11.0096L14.7024 10.5474L15.0383 10.22L14.5739 10.1524L14.3664 9.73177ZM16.3037 11.0096L16.7189 10.7915L17.1342 11.0096L17.0549 10.5474L17.3906 10.22L16.9264 10.1524L16.7189 9.73177L16.5112 10.1524L16.047 10.22L16.383 10.5474L16.3037 11.0096ZM9.6614 11.8442L9.45389 12.2648L8.98975 12.3321L9.32571 12.6595L9.24639 13.1221L9.6614 12.9036L10.0767 13.1221L9.99736 12.6595L10.3333 12.3321L9.86917 12.2648L9.6614 11.8442ZM12.0139 11.8442L11.8064 12.2648L11.3423 12.3321L11.678 12.6595L11.5989 13.1221L12.0139 12.9036L12.4292 13.1221L12.3499 12.6595L12.6858 12.3321L12.2217 12.2648L12.0139 11.8442ZM14.3664 11.8442L14.1589 12.2648L13.6945 12.3321L14.0305 12.6595L13.9512 13.1221L14.3664 12.9036L14.7817 13.1221L14.7024 12.6595L15.0383 12.3321L14.5739 12.2648L14.3664 11.8442ZM16.7189 11.8442L16.5112 12.2648L16.047 12.3321L16.383 12.6595L16.3037 13.1221L16.7189 12.9036L17.1342 13.1221L17.0549 12.6595L17.3906 12.3321L16.9264 12.2648L16.7189 11.8442ZM9.86917 14.4349L9.6614 14.0143L9.45389 14.4349L8.98975 14.5025L9.32571 14.8299L9.24639 15.2922L9.6614 15.074L10.0767 15.2922L9.99736 14.8299L10.3333 14.5025L9.86917 14.4349ZM12.2217 14.4349L12.0139 14.0143L11.8064 14.4349L11.3423 14.5025L11.678 14.8299L11.5989 15.2922L12.0139 15.074L12.4292 15.2922L12.3499 14.8299L12.6858 14.5025L12.2217 14.4349ZM14.5739 14.4349L14.3664 14.0143L14.1589 14.4349L13.6945 14.5025L14.0305 14.8299L13.9512 15.2922L14.3664 15.074L14.7817 15.2922L14.7024 14.8299L15.0383 14.5025L14.5739 14.4349ZM16.9264 14.4349L16.7189 14.0143L16.5112 14.4349L16.047 14.5025L16.383 14.8299L16.3037 15.2922L16.7189 15.074L17.1342 15.2922L17.0549 14.8299L17.3906 14.5025L16.9264 14.4349Z" fill="white"/>
</svg>
