<svg width="24" height="24" viewBox="0 0 24 24" fill="none" xmlns="http://www.w3.org/2000/svg">
<path d="M17.6022 14.412C17.3611 14.2921 15.7938 13.573 15.5526 13.4532C15.3115 13.3333 15.0704 13.3333 14.8292 13.573C14.5881 13.8127 14.1059 14.5318 13.8647 14.7715C13.7442 15.0112 13.503 15.0112 13.2619 14.8914C12.4179 14.5318 11.574 14.0524 10.8506 13.4532C10.2478 12.8539 9.64495 12.1348 9.16269 11.4157C9.04213 11.176 9.16269 10.9363 9.28325 10.8165C9.40382 10.6966 9.52439 10.4569 9.76552 10.3371C9.88608 10.2172 10.0066 9.97753 10.0066 9.85768C10.1272 9.73783 10.1272 9.49813 10.0066 9.37828C9.88608 9.25843 9.28326 7.82023 9.04213 7.22097C8.92156 6.38202 8.68043 6.38202 8.4393 6.38202H7.83648C7.59535 6.38202 7.23365 6.62172 7.11309 6.74157C6.3897 7.46067 6.028 8.29963 6.028 9.25843C6.14857 10.3371 6.51026 11.4157 7.23365 12.3745C8.55987 14.2921 10.2478 15.8502 12.2974 16.809C12.9002 17.0487 13.3825 17.2884 13.9853 17.4082C14.5881 17.6479 15.1909 17.6479 15.9143 17.5281C16.7583 17.4082 17.4817 16.809 17.9639 16.0899C18.2051 15.6105 18.2051 15.1311 18.0845 14.6517L17.6022 14.412ZM20.6164 3.50562C15.9143 -1.16854 8.31874 -1.16854 3.6167 3.50562C-0.241374 7.34082 -0.964763 13.2135 1.68766 17.8876L-0.000244141 24L6.3897 22.3221C8.19817 23.2809 10.1272 23.7603 12.0562 23.7603C18.6873 23.7603 23.9922 18.4869 23.9922 11.8951C24.1127 8.77903 22.7865 5.78277 20.6164 3.50562ZM17.3611 20.2846C15.7938 21.2434 13.9853 21.8427 12.0562 21.8427C10.2478 21.8427 8.55987 21.3633 6.99252 20.5243L6.63083 20.2846L2.89331 21.2434L3.85783 17.6479L3.6167 17.2884C0.723145 12.4944 2.16992 6.50187 6.87196 3.50562C11.574 0.509364 17.6022 2.06742 20.4958 6.62172C23.3894 11.2959 22.0631 17.4082 17.3611 20.2846Z" fill="#335F32"/>
<path d="M17.6022 14.412C17.3611 14.2921 15.7938 13.573 15.5526 13.4532C15.3115 13.3333 15.0704 13.3333 14.8292 13.573C14.5881 13.8127 14.1059 14.5318 13.8647 14.7715C13.7442 15.0112 13.503 15.0112 13.2619 14.8914C12.4179 14.5318 11.574 14.0524 10.8506 13.4532C10.2478 12.8539 9.64495 12.1348 9.16269 11.4157C9.04213 11.176 9.16269 10.9363 9.28325 10.8165C9.40382 10.6966 9.52439 10.4569 9.76552 10.3371C9.88608 10.2172 10.0066 9.97753 10.0066 9.85768C10.1272 9.73783 10.1272 9.49813 10.0066 9.37828C9.88608 9.25843 9.28326 7.82023 9.04213 7.22097C8.92156 6.38202 8.68043 6.38202 8.4393 6.38202H7.83648C7.59535 6.38202 7.23365 6.62172 7.11309 6.74157C6.3897 7.46067 6.028 8.29963 6.028 9.25843C6.14857 10.3371 6.51026 11.4157 7.23365 12.3745C8.55987 14.2921 10.2478 15.8502 12.2974 16.809C12.9002 17.0487 13.3825 17.2884 13.9853 17.4082C14.5881 17.6479 15.1909 17.6479 15.9143 17.5281C16.7583 17.4082 17.4817 16.809 17.9639 16.0899C18.2051 15.6105 18.2051 15.1311 18.0845 14.6517L17.6022 14.412ZM20.6164 3.50562C15.9143 -1.16854 8.31874 -1.16854 3.6167 3.50562C-0.241374 7.34082 -0.964763 13.2135 1.68766 17.8876L-0.000244141 24L6.3897 22.3221C8.19817 23.2809 10.1272 23.7603 12.0562 23.7603C18.6873 23.7603 23.9922 18.4869 23.9922 11.8951C24.1127 8.77903 22.7865 5.78277 20.6164 3.50562ZM17.3611 20.2846C15.7938 21.2434 13.9853 21.8427 12.0562 21.8427C10.2478 21.8427 8.55987 21.3633 6.99252 20.5243L6.63083 20.2846L2.89331 21.2434L3.85783 17.6479L3.6167 17.2884C0.723145 12.4944 2.16992 6.50187 6.87196 3.50562C11.574 0.509364 17.6022 2.06742 20.4958 6.62172C23.3894 11.2959 22.0631 17.4082 17.3611 20.2846Z" fill="black" fill-opacity="0.2"/>
</svg>
